TitilliumWeb-ExtraLight.ufo
<glyph name="quotedbl" format="2">
  <advance width="348"/>
  <unicode hex="0022"/>
  <outline>
    <contour>
      <point x="238" y="490" type="line"/>
      <point x="271" y="490" type="line"/>
      <point x="274" y="700" type="line"/>
      <point x="235" y="700" type="line"/>
    </contour>
    <contour>
      <point x="77" y="490" type="line"/>
      <point x="110" y="490" type="line"/>
      <point x="113" y="700" type="line"/>
      <point x="74" y="700" type="line"/>
    </contour>
  </outline>
</glyph>
<glyph name="dollar" format="2">
  <advance width="560"/>
  <unicode hex="0024"/>
  <outline>
    <contour>
      <point x="212" y="-113" type="line"/>
      <point x="247" y="-120" type="line"/>
      <point x="304" y="323" type="line"/>
      <point x="270" y="330" type="line"/>
    </contour>
    <contour>
      <point x="273" y="352" type="line"/>
      <point x="307" y="346" type="line"/>
      <point x="365" y="790" type="line"/>
      <point x="330" y="790" type="line"/>
    </contour>
    <contour>
      <point x="285" y="-7" type="curve" smooth="yes"/>
      <point x="415" y="-7"/>
      <point x="484" y="44"/>
      <point x="484" y="191" type="curve" smooth="yes"/>
      <point x="484" y="310"/>
      <point x="417" y="338"/>
      <point x="292" y="358" type="curve" smooth="yes"/>
      <point x="174" y="376"/>
      <point x="115" y="391"/>
      <point x="115" y="505" type="curve" smooth="yes"/>
      <point x="115" y="599"/>
      <point x="176" y="637"/>
      <point x="283" y="637" type="curve" smooth="yes"/>
      <point x="322" y="637"/>
      <point x="411" y="628"/>
      <point x="466" y="621" type="curve"/>
      <point x="470" y="654" type="line"/>
      <point x="421" y="661"/>
      <point x="336" y="669"/>
      <point x="283" y="669" type="curve" smooth="yes"/>
      <point x="158" y="669"/>
      <point x="80" y="625"/>
      <point x="80" y="503" type="curve" smooth="yes"/>
      <point x="80" y="365"/>
      <point x="155" y="343"/>
      <point x="284" y="324" type="curve" smooth="yes"/>
      <point x="400" y="306"/>
      <point x="449" y="284"/>
      <point x="449" y="188" type="curve" smooth="yes"/>
      <point x="449" y="71"/>
      <point x="391" y="25"/>
      <point x="284" y="25" type="curve" smooth="yes"/>
      <point x="235" y="25"/>
      <point x="143" y="35"/>
      <point x="87" y="41" type="curve"/>
      <point x="83" y="8" type="line"/>
      <point x="140" y="2"/>
      <point x="233" y="-7"/>
    </contour>
  </outline>
</glyph>
<glyph name="ampersand" format="2">
  <advance width="680"/>
  <unicode hex="0026"/>
  <outline>
    <contour>
      <point x="277" y="-9" type="curve" smooth="yes"/>
      <point x="379" y="-9"/>
      <point x="452" y="29"/>
      <point x="499" y="123" type="curve"/>
      <point x="630" y="-7" type="line"/>
      <point x="654" y="19" type="line"/>
      <point x="514" y="156" type="line"/>
      <point x="532" y="202"/>
      <point x="551" y="298"/>
      <point x="557" y="367" type="curve"/>
      <point x="522" y="367" type="line"/>
      <point x="518" y="310"/>
      <point x="501" y="222"/>
      <point x="487" y="182" type="curve"/>
      <point x="300" y="367" type="line"/>
      <point x="415" y="405"/>
      <point x="465" y="450"/>
      <point x="465" y="549" type="curve" smooth="yes"/>
      <point x="465" y="634"/>
      <point x="421" y="694"/>
      <point x="312" y="694" type="curve" smooth="yes"/>
      <point x="209" y="694"/>
      <point x="159" y="634"/>
      <point x="159" y="550" type="curve" smooth="yes"/>
      <point x="159" y="497"/>
      <point x="163" y="460"/>
      <point x="210" y="409" type="curve"/>
      <point x="99" y="377"/>
      <point x="47" y="332"/>
      <point x="47" y="208" type="curve" smooth="yes"/>
      <point x="47" y="74"/>
      <point x="101" y="-9"/>
    </contour>
    <contour>
      <point x="279" y="24" type="curve" smooth="yes"/>
      <point x="134" y="24"/>
      <point x="82" y="90"/>
      <point x="82" y="209" type="curve" smooth="yes"/>
      <point x="82" y="314"/>
      <point x="123" y="353"/>
      <point x="236" y="383" type="curve"/>
      <point x="473" y="148" type="line"/>
      <point x="433" y="61"/>
      <point x="369" y="24"/>
    </contour>
    <contour>
      <point x="275" y="391" type="curve"/>
      <point x="195" y="471"/>
      <point x="194" y="492"/>
      <point x="194" y="550" type="curve" smooth="yes"/>
      <point x="194" y="624"/>
      <point x="235" y="662"/>
      <point x="312" y="662" type="curve" smooth="yes"/>
      <point x="398" y="662"/>
      <point x="430" y="619"/>
      <point x="430" y="550" type="curve" smooth="yes"/>
      <point x="430" y="463"/>
      <point x="387" y="429"/>
    </contour>
  </outline>
</glyph>
<glyph name="parenright" format="2">
  <advance width="234"/>
  <unicode hex="0029"/>
  <outline>
    <contour>
      <point x="79" y="-125" type="line"/>
      <point x="121" y="-28"/>
      <point x="176" y="155"/>
      <point x="176" y="301" type="curve" smooth="yes"/>
      <point x="176" y="447"/>
      <point x="121" y="643"/>
      <point x="79" y="750" type="curve"/>
      <point x="44" y="750" type="line"/>
      <point x="85" y="638"/>
      <point x="139" y="439"/>
      <point x="139" y="301" type="curve" smooth="yes"/>
      <point x="139" y="165"/>
      <point x="85" y="-22"/>
      <point x="44" y="-125" type="curve"/>
    </contour>
  </outline>
</glyph>
<glyph name="asterisk" format="2">
  <advance width="417"/>
  <unicode hex="002A"/>
  <outline>
    <contour>
      <point x="235" y="380" type="line"/>
      <point x="267" y="390" type="line"/>
      <point x="225" y="519" type="line"/>
      <point x="362" y="519" type="line"/>
      <point x="362" y="553" type="line"/>
      <point x="227" y="553" type="line"/>
      <point x="269" y="683" type="line"/>
      <point x="237" y="693" type="line"/>
      <point x="195" y="564" type="line"/>
      <point x="85" y="645" type="line"/>
      <point x="65" y="618" type="line"/>
      <point x="174" y="538" type="line"/>
      <point x="64" y="458" type="line"/>
      <point x="83" y="431" type="line"/>
      <point x="193" y="510" type="line"/>
    </contour>
  </outline>
</glyph>
<glyph name="plus" format="2">
  <advance width="560"/>
  <unicode hex="002B"/>
  <outline>
    <contour>
      <point x="261" y="20" type="line"/>
      <point x="297" y="20" type="line"/>
      <point x="297" y="234" type="line"/>
      <point x="501" y="234" type="line"/>
      <point x="501" y="268" type="line"/>
      <point x="297" y="268" type="line"/>
      <point x="297" y="480" type="line"/>
      <point x="261" y="480" type="line"/>
      <point x="261" y="268" type="line"/>
      <point x="59" y="268" type="line"/>
      <point x="59" y="234" type="line"/>
      <point x="261" y="234" type="line"/>
    </contour>
  </outline>
</glyph>
<glyph name="zero" format="2">
  <advance width="560"/>
  <unicode hex="0030"/>
  <outline>
    <contour>
      <point x="280" y="-9" type="curve" smooth="yes"/>
      <point x="422" y="-9"/>
      <point x="510" y="61"/>
      <point x="510" y="316" type="curve" smooth="yes"/>
      <point x="510" y="602"/>
      <point x="429" y="670"/>
      <point x="279" y="670" type="curve" smooth="yes"/>
      <point x="135" y="670"/>
      <point x="49" y="601"/>
      <point x="49" y="315" type="curve" smooth="yes"/>
      <point x="49" y="58"/>
      <point x="138" y="-9"/>
    </contour>
    <contour>
      <point x="280" y="25" type="curve" smooth="yes"/>
      <point x="160" y="25"/>
      <point x="87" y="78"/>
      <point x="87" y="314" type="curve" smooth="yes"/>
      <point x="87" y="575"/>
      <point x="152" y="636"/>
      <point x="279" y="636" type="curve" smooth="yes"/>
      <point x="409" y="636"/>
      <point x="472" y="572"/>
      <point x="472" y="316" type="curve" smooth="yes"/>
      <point x="472" y="79"/>
      <point x="400" y="25"/>
    </contour>
  </outline>
</glyph>
<glyph name="one" format="2">
  <advance width="560"/>
  <unicode hex="0031"/>
  <outline>
    <contour>
      <point x="333" y="0" type="line"/>
      <point x="369" y="0" type="line"/>
      <point x="369" y="660" type="line"/>
      <point x="333" y="660" type="line"/>
      <point x="129" y="524" type="line"/>
      <point x="146" y="495" type="line"/>
      <point x="333" y="621" type="line"/>
    </contour>
  </outline>
</glyph>
<glyph name="six" format="2">
  <advance width="560"/>
  <unicode hex="0036"/>
  <outline>
    <contour>
      <point x="284" y="-9" type="curve" smooth="yes"/>
      <point x="431" y="-9"/>
      <point x="508" y="73"/>
      <point x="508" y="208" type="curve" smooth="yes"/>
      <point x="508" y="340"/>
      <point x="433" y="406"/>
      <point x="290" y="406" type="curve" smooth="yes"/>
      <point x="202" y="406"/>
      <point x="98" y="357"/>
      <point x="98" y="358" type="curve" smooth="yes"/>
      <point x="99" y="541"/>
      <point x="176" y="635"/>
      <point x="306" y="635" type="curve" smooth="yes"/>
      <point x="367" y="635"/>
      <point x="437" y="630"/>
      <point x="472" y="626" type="curve"/>
      <point x="476" y="659" type="line"/>
      <point x="439" y="663"/>
      <point x="367" y="669"/>
      <point x="306" y="669" type="curve" smooth="yes"/>
      <point x="157" y="669"/>
      <point x="60" y="568"/>
      <point x="60" y="337" type="curve" smooth="yes"/>
      <point x="60" y="121"/>
      <point x="128" y="-9"/>
    </contour>
    <contour>
      <point x="284" y="25" type="curve" smooth="yes"/>
      <point x="150" y="25"/>
      <point x="100" y="151"/>
      <point x="97" y="323" type="curve"/>
      <point x="140" y="344"/>
      <point x="222" y="372"/>
      <point x="289" y="372" type="curve" smooth="yes"/>
      <point x="401" y="372"/>
      <point x="470" y="320"/>
      <point x="470" y="208" type="curve" smooth="yes"/>
      <point x="470" y="89"/>
      <point x="405" y="25"/>
    </contour>
  </outline>
</glyph>
<glyph name="seven" format="2">
  <advance width="560"/>
  <unicode hex="0037"/>
  <outline>
    <contour>
      <point x="217" y="-9" type="line"/>
      <point x="485" y="595" type="line"/>
      <point x="485" y="660" type="line"/>
      <point x="83" y="660" type="line"/>
      <point x="83" y="626" type="line"/>
      <point x="447" y="626" type="line"/>
      <point x="447" y="603" type="line"/>
      <point x="182" y="5" type="line"/>
    </contour>
  </outline>
</glyph>
<glyph name="eight" format="2">
  <advance width="560"/>
  <unicode hex="0038"/>
  <outline>
    <contour>
      <point x="278" y="-9" type="curve" smooth="yes"/>
      <point x="414" y="-9"/>
      <point x="525" y="30"/>
      <point x="525" y="179" type="curve" smooth="yes"/>
      <point x="525" y="282"/>
      <point x="462" y="324"/>
      <point x="379" y="348" type="curve"/>
      <point x="469" y="374"/>
      <point x="515" y="416"/>
      <point x="515" y="505" type="curve" smooth="yes"/>
      <point x="515" y="621"/>
      <point x="420" y="670"/>
      <point x="278" y="670" type="curve" smooth="yes"/>
      <point x="134" y="670"/>
      <point x="45" y="620"/>
      <point x="45" y="506" type="curve" smooth="yes"/>
      <point x="45" y="416"/>
      <point x="92" y="375"/>
      <point x="169" y="348" type="curve"/>
      <point x="91" y="316"/>
      <point x="34" y="279"/>
      <point x="34" y="168" type="curve" smooth="yes"/>
      <point x="34" y="33"/>
      <point x="149" y="-9"/>
    </contour>
    <contour>
      <point x="278" y="25" type="curve" smooth="yes"/>
      <point x="167" y="25"/>
      <point x="73" y="58"/>
      <point x="73" y="169" type="curve" smooth="yes"/>
      <point x="73" y="270"/>
      <point x="127" y="309"/>
      <point x="214" y="330" type="curve"/>
      <point x="331" y="330" type="line"/>
      <point x="415" y="309"/>
      <point x="487" y="285"/>
      <point x="487" y="178" type="curve" smooth="yes"/>
      <point x="487" y="57"/>
      <point x="396" y="25"/>
    </contour>
    <contour>
      <point x="214" y="363" type="line"/>
      <point x="127" y="387"/>
      <point x="83" y="424"/>
      <point x="83" y="505" type="curve" smooth="yes"/>
      <point x="83" y="604"/>
      <point x="158" y="636"/>
      <point x="278" y="636" type="curve" smooth="yes"/>
      <point x="400" y="636"/>
      <point x="476" y="602"/>
      <point x="476" y="504" type="curve" smooth="yes"/>
      <point x="476" y="423"/>
      <point x="423" y="385"/>
      <point x="331" y="363" type="curve"/>
    </contour>
  </outline>
</glyph>
<glyph name="semicolon" format="2">
  <advance width="228"/>
  <unicode hex="003B"/>
  <outline>
    <contour>
      <point x="62" y="-123" type="line"/>
      <point x="93" y="-123" type="line"/>
      <point x="145" y="87" type="line"/>
      <point x="103" y="87" type="line"/>
    </contour>
    <contour>
      <point x="100" y="344" type="line"/>
      <point x="140" y="344" type="line"/>
      <point x="140" y="424" type="line"/>
      <point x="100" y="424" type="line"/>
    </contour>
  </outline>
</glyph>
<glyph name="less" format="2">
  <advance width="560"/>
  <unicode hex="003C"/>
  <outline>
    <contour>
      <point x="481" y="15" type="line"/>
      <point x="481" y="56" type="line"/>
      <point x="90" y="251" type="line"/>
      <point x="481" y="446" type="line"/>
      <point x="481" y="485" type="line"/>
      <point x="57" y="269" type="line"/>
      <point x="57" y="233" type="line"/>
    </contour>
  </outline>
</glyph>
<glyph name="equal" format="2">
  <advance width="560"/>
  <unicode hex="003D"/>
  <outline>
    <contour>
      <point x="68" y="318" type="line"/>
      <point x="492" y="318" type="line"/>
      <point x="492" y="352" type="line"/>
      <point x="68" y="352" type="line"/>
    </contour>
    <contour>
      <point x="68" y="149" type="line"/>
      <point x="492" y="149" type="line"/>
      <point x="492" y="183" type="line"/>
      <point x="68" y="183" type="line"/>
    </contour>
  </outline>
</glyph>
<glyph name="greater" format="2">
  <advance width="560"/>
  <unicode hex="003E"/>
  <outline>
    <contour>
      <point x="78" y="15" type="line"/>
      <point x="502" y="233" type="line"/>
      <point x="502" y="269" type="line"/>
      <point x="78" y="485" type="line"/>
      <point x="78" y="446" type="line"/>
      <point x="469" y="251" type="line"/>
      <point x="78" y="56" type="line"/>
    </contour>
  </outline>
</glyph>
<glyph name="question" format="2">
  <advance width="453"/>
  <unicode hex="003F"/>
  <outline>
    <contour>
      <point x="174" y="190" type="curve"/>
      <point x="208" y="190" type="line"/>
      <point x="208" y="228" type="line" smooth="yes"/>
      <point x="208" y="284"/>
      <point x="255" y="324"/>
      <point x="306" y="369" type="curve" smooth="yes"/>
      <point x="390" y="443"/>
      <point x="407" y="469"/>
      <point x="407" y="551" type="curve" smooth="yes" name="hr00"/>
      <point x="407" y="668"/>
      <point x="334" y="709"/>
      <point x="207" y="709" type="curve" smooth="yes"/>
      <point x="168" y="709"/>
      <point x="89" y="694"/>
      <point x="41" y="682" type="curve"/>
      <point x="46" y="648" type="line"/>
      <point x="95" y="660"/>
      <point x="172" y="676"/>
      <point x="207" y="676" type="curve" smooth="yes"/>
      <point x="313" y="676"/>
      <point x="372" y="647"/>
      <point x="372" y="551" type="curve" smooth="yes"/>
      <point x="372" y="482"/>
      <point x="351" y="455"/>
      <point x="280" y="391" type="curve" smooth="yes"/>
      <point x="228" y="344"/>
      <point x="173" y="296"/>
      <point x="173" y="231" type="curve"/>
      <point x="173" y="217"/>
      <point x="174" y="204"/>
    </contour>
    <contour>
      <point x="171" y="1" type="line"/>
      <point x="211" y="1" type="line"/>
      <point x="211" y="81" type="line"/>
      <point x="171" y="81" type="line"/>
    </contour>
  </outline>
</glyph>
<glyph name="A" format="2">
  <advance width="592"/>
  <unicode hex="0041"/>
  <outline>
    <contour>
      <point x="28" y="0" type="line"/>
      <point x="64" y="0" type="line"/>
      <point x="129" y="215" type="line"/>
      <point x="463" y="215" type="line"/>
      <point x="528" y="0" type="line"/>
      <point x="564" y="0" type="line"/>
      <point x="349" y="700" type="line"/>
      <point x="243" y="700" type="line"/>
    </contour>
    <contour>
      <point x="140" y="249" type="line"/>
      <point x="268" y="666" type="line"/>
      <point x="324" y="666" type="line"/>
      <point x="452" y="249" type="line"/>
    </contour>
  </outline>
</glyph>
<glyph name="D" format="2">
  <advance width="649"/>
  <unicode hex="0044"/>
  <outline>
    <contour>
      <point x="92" y="0" type="line"/>
      <point x="352" y="0" type="line" smooth="yes"/>
      <point x="528" y="0"/>
      <point x="586" y="182"/>
      <point x="586" y="358" type="curve" smooth="yes"/>
      <point x="586" y="534"/>
      <point x="528" y="700"/>
      <point x="352" y="700" type="curve" smooth="yes"/>
      <point x="92" y="700" type="line"/>
    </contour>
    <contour>
      <point x="128" y="34" type="line"/>
      <point x="128" y="666" type="line"/>
      <point x="352" y="666" type="line" smooth="yes"/>
      <point x="502" y="666"/>
      <point x="548" y="508"/>
      <point x="548" y="358" type="curve" smooth="yes"/>
      <point x="548" y="208"/>
      <point x="502" y="34"/>
      <point x="352" y="34" type="curve" smooth="yes"/>
    </contour>
  </outline>
</glyph>
<glyph name="E" format="2">
  <advance width="552"/>
  <unicode hex="0045"/>
  <outline>
    <contour>
      <point x="92" y="0" type="line"/>
      <point x="501" y="0" type="line"/>
      <point x="501" y="34" type="line"/>
      <point x="128" y="34" type="line"/>
      <point x="128" y="341" type="line"/>
      <point x="441" y="341" type="line"/>
      <point x="441" y="375" type="line"/>
      <point x="128" y="375" type="line"/>
      <point x="128" y="666" type="line"/>
      <point x="501" y="666" type="line"/>
      <point x="501" y="700" type="line"/>
      <point x="92" y="700" type="line"/>
    </contour>
  </outline>
</glyph>
<glyph name="F" format="2">
  <advance width="523"/>
  <unicode hex="0046"/>
  <outline>
    <contour>
      <point x="92" y="0" type="line"/>
      <point x="128" y="0" type="line"/>
      <point x="128" y="316" type="line"/>
      <point x="442" y="316" type="line"/>
      <point x="442" y="350" type="line"/>
      <point x="128" y="350" type="line"/>
      <point x="128" y="666" type="line"/>
      <point x="493" y="666" type="line"/>
      <point x="493" y="700" type="line"/>
      <point x="92" y="700" type="line"/>
    </contour>
  </outline>
</glyph>
<glyph name="H" format="2">
  <advance width="674"/>
  <unicode hex="0048"/>
  <outline>
    <contour>
      <point x="92" y="0" type="line"/>
      <point x="128" y="0" type="line"/>
      <point x="128" y="334" type="line"/>
      <point x="546" y="334" type="line"/>
      <point x="546" y="0" type="line"/>
      <point x="582" y="0" type="line"/>
      <point x="582" y="700" type="line"/>
      <point x="546" y="700" type="line"/>
      <point x="546" y="368" type="line"/>
      <point x="128" y="368" type="line"/>
      <point x="128" y="700" type="line"/>
      <point x="92" y="700" type="line"/>
    </contour>
  </outline>
</glyph>
<glyph name="J" format="2">
  <advance width="280"/>
  <unicode hex="004A"/>
  <outline>
    <contour>
      <point x="18" y="-73" type="line"/>
      <point x="138" y="-73"/>
      <point x="191" y="-69"/>
      <point x="191" y="81" type="curve" smooth="yes"/>
      <point x="191" y="700" type="line"/>
      <point x="155" y="700" type="line"/>
      <point x="155" y="96" type="line" smooth="yes"/>
      <point x="155" y="-37"/>
      <point x="135" y="-39"/>
      <point x="18" y="-39" type="curve"/>
    </contour>
  </outline>
</glyph>
<glyph name="M" format="2">
  <advance width="828"/>
  <unicode hex="004D"/>
  <outline>
    <contour>
      <point x="92" y="0" type="line"/>
      <point x="128" y="0" type="line"/>
      <point x="128" y="666" type="line"/>
      <point x="142" y="666" type="line"/>
      <point x="388" y="21" type="line"/>
      <point x="440" y="21" type="line"/>
      <point x="686" y="666" type="line"/>
      <point x="700" y="666" type="line"/>
      <point x="700" y="0" type="line"/>
      <point x="736" y="0" type="line"/>
      <point x="736" y="700" type="line"/>
      <point x="660" y="700" type="line"/>
      <point x="414" y="55" type="line"/>
      <point x="168" y="700" type="line"/>
      <point x="92" y="700" type="line"/>
    </contour>
  </outline>
</glyph>
<glyph name="P" format="2">
  <advance width="595"/>
  <unicode hex="0050"/>
  <outline>
    <contour>
      <point x="92" y="0" type="line"/>
      <point x="128" y="0" type="line"/>
      <point x="128" y="257" type="line"/>
      <point x="347" y="257" type="line" smooth="yes"/>
      <point x="492" y="257"/>
      <point x="554" y="340"/>
      <point x="554" y="485" type="curve" smooth="yes"/>
      <point x="554" y="630"/>
      <point x="492" y="700"/>
      <point x="347" y="700" type="curve" smooth="yes"/>
      <point x="92" y="700" type="line"/>
    </contour>
    <contour>
      <point x="128" y="291" type="line"/>
      <point x="128" y="666" type="line"/>
      <point x="347" y="666" type="line" smooth="yes"/>
      <point x="468" y="666"/>
      <point x="516" y="606"/>
      <point x="516" y="485" type="curve" smooth="yes"/>
      <point x="516" y="364"/>
      <point x="468" y="291"/>
      <point x="347" y="291" type="curve" smooth="yes"/>
    </contour>
  </outline>
</glyph>
<glyph name="R" format="2">
  <advance width="613"/>
  <unicode hex="0052"/>
  <anchor x="319" y="0" name="bottom"/>
  <outline>
    <contour>
      <point x="92" y="0" type="line"/>
      <point x="128" y="0" type="line"/>
      <point x="128" y="290" type="line"/>
      <point x="367" y="290" type="line"/>
      <point x="523" y="0" type="line"/>
      <point x="564" y="0" type="line"/>
      <point x="406" y="295" type="line"/>
      <point x="510" y="315"/>
      <point x="551" y="392"/>
      <point x="551" y="500" type="curve" smooth="yes"/>
      <point x="551" y="640"/>
      <point x="482" y="700"/>
      <point x="343" y="700" type="curve" smooth="yes"/>
      <point x="92" y="700" type="line"/>
    </contour>
    <contour>
      <point x="128" y="324" type="line"/>
      <point x="128" y="666" type="line"/>
      <point x="343" y="666" type="line" smooth="yes"/>
      <point x="460" y="666"/>
      <point x="513" y="616"/>
      <point x="513" y="500" type="curve" smooth="yes"/>
      <point x="513" y="396"/>
      <point x="470" y="324"/>
      <point x="343" y="324" type="curve" smooth="yes"/>
    </contour>
  </outline>
</glyph>
<glyph name="U" format="2">
  <advance width="638"/>
  <unicode hex="0055"/>
  <outline>
    <contour>
      <point x="314" y="-9" type="curve" smooth="yes"/>
      <point x="464" y="-9"/>
      <point x="550" y="46"/>
      <point x="550" y="196" type="curve" smooth="yes"/>
      <point x="550" y="700" type="line"/>
      <point x="514" y="700" type="line"/>
      <point x="514" y="196" type="line" smooth="yes"/>
      <point x="514" y="69"/>
      <point x="440" y="25"/>
      <point x="314" y="25" type="curve" smooth="yes"/>
      <point x="197" y="25"/>
      <point x="124" y="70"/>
      <point x="124" y="196" type="curve" smooth="yes"/>
      <point x="124" y="700" type="line"/>
      <point x="88" y="700" type="line"/>
      <point x="88" y="196" type="line" smooth="yes"/>
      <point x="88" y="45"/>
      <point x="174" y="-9"/>
    </contour>
  </outline>
</glyph>
<glyph name="W" format="2">
  <advance width="856"/>
  <unicode hex="0057"/>
  <outline>
    <contour>
      <point x="185" y="0" type="line"/>
      <point x="281" y="0" type="line"/>
      <point x="432" y="656" type="line"/>
      <point x="424" y="656" type="line"/>
      <point x="575" y="0" type="line"/>
      <point x="671" y="0" type="line"/>
      <point x="818" y="700" type="line"/>
      <point x="782" y="700" type="line"/>
      <point x="642" y="34" type="line"/>
      <point x="603" y="34" type="line"/>
      <point x="450" y="690" type="line"/>
      <point x="406" y="690" type="line"/>
      <point x="253" y="34" type="line"/>
      <point x="214" y="34" type="line"/>
      <point x="74" y="700" type="line"/>
      <point x="38" y="700" type="line"/>
    </contour>
  </outline>
</glyph>
<glyph name="Y" format="2">
  <advance width="526"/>
  <unicode hex="0059"/>
  <outline>
    <contour>
      <point x="245" y="0" type="line"/>
      <point x="281" y="0" type="line"/>
      <point x="281" y="301" type="line"/>
      <point x="509" y="700" type="line"/>
      <point x="467" y="700" type="line"/>
      <point x="263" y="341" type="line"/>
      <point x="59" y="700" type="line"/>
      <point x="17" y="700" type="line"/>
      <point x="245" y="301" type="line"/>
    </contour>
  </outline>
</glyph>
<glyph name="Z" format="2">
  <advance width="539"/>
  <unicode hex="005A"/>
  <outline>
    <contour>
      <point x="44" y="-1" type="line"/>
      <point x="494" y="-1" type="line"/>
      <point x="494" y="33" type="line"/>
      <point x="81" y="33" type="line"/>
      <point x="81" y="55" type="line"/>
      <point x="494" y="630" type="line"/>
      <point x="494" y="700" type="line"/>
      <point x="44" y="700" type="line"/>
      <point x="44" y="666" type="line"/>
      <point x="457" y="666" type="line"/>
      <point x="457" y="642" type="line"/>
      <point x="44" y="68" type="line"/>
    </contour>
  </outline>
</glyph>
<glyph name="bracketleft" format="2">
  <advance width="311"/>
  <unicode hex="005B"/>
  <outline>
    <contour>
      <point x="86" y="-123" type="line"/>
      <point x="268" y="-123" type="line"/>
      <point x="268" y="-91" type="line"/>
      <point x="121" y="-91" type="line"/>
      <point x="121" y="717" type="line"/>
      <point x="268" y="717" type="line"/>
      <point x="268" y="749" type="line"/>
      <point x="86" y="749" type="line"/>
    </contour>
  </outline>
</glyph>
<glyph name="asciicircum" format="2">
  <advance width="560"/>
  <unicode hex="005E"/>
  <outline>
    <contour>
      <point x="82" y="323" type="line"/>
      <point x="122" y="323" type="line"/>
      <point x="280" y="624" type="line"/>
      <point x="447" y="323" type="line"/>
      <point x="487" y="323" type="line"/>
      <point x="298" y="660" type="line"/>
      <point x="262" y="660" type="line"/>
    </contour>
  </outline>
</glyph>
<glyph name="grave" format="2">
  <advance width="215"/>
  <unicode hex="0060"/>
  <outline>
    <contour>
      <point x="10" y="701" type="line"/>
      <point x="203" y="609" type="line"/>
      <point x="218" y="636" type="line"/>
      <point x="26" y="732" type="line"/>
    </contour>
  </outline>
</glyph>
<glyph name="a" format="2">
  <advance width="495"/>
  <unicode hex="0061"/>
  <outline>
    <contour>
      <point x="179" y="-9" type="curve" smooth="yes"/>
      <point x="252" y="-9"/>
      <point x="337" y="16"/>
      <point x="381" y="34" type="curve"/>
      <point x="391" y="20"/>
      <point x="405" y="10"/>
      <point x="421" y="3" type="curve" smooth="yes"/>
      <point x="439" y="-5"/>
      <point x="461" y="-8"/>
      <point x="484" y="-8" type="curve"/>
      <point x="486" y="23" type="line"/>
      <point x="451" y="26"/>
      <point x="414" y="36"/>
      <point x="411" y="65" type="curve"/>
      <point x="411" y="353" type="line" smooth="yes"/>
      <point x="411" y="456"/>
      <point x="366" y="509"/>
      <point x="265" y="509" type="curve" smooth="yes"/>
      <point x="207" y="509"/>
      <point x="121" y="499"/>
      <point x="73" y="491" type="curve"/>
      <point x="76" y="458" type="line"/>
      <point x="126" y="465"/>
      <point x="212" y="475"/>
      <point x="265" y="475" type="curve" smooth="yes"/>
      <point x="338" y="475"/>
      <point x="376" y="440"/>
      <point x="376" y="353" type="curve" smooth="yes"/>
      <point x="376" y="301" type="line"/>
      <point x="186" y="281" type="line" smooth="yes"/>
      <point x="88" y="271"/>
      <point x="48" y="222"/>
      <point x="48" y="137" type="curve" smooth="yes"/>
      <point x="48" y="40"/>
      <point x="97" y="-9"/>
    </contour>
    <contour>
      <point x="180" y="23" type="curve" smooth="yes"/>
      <point x="119" y="23"/>
      <point x="85" y="64"/>
      <point x="85" y="137" type="curve" smooth="yes"/>
      <point x="85" y="206"/>
      <point x="112" y="242"/>
      <point x="190" y="250" type="curve" smooth="yes"/>
      <point x="376" y="269" type="line"/>
      <point x="376" y="64" type="line"/>
      <point x="332" y="46"/>
      <point x="249" y="23"/>
    </contour>
  </outline>
</glyph>
<glyph name="f" format="2">
  <advance width="313"/>
  <unicode hex="0066"/>
  <outline>
    <contour>
      <point x="98" y="0" type="line"/>
      <point x="133" y="0" type="line"/>
      <point x="133" y="468" type="line" name="hr00"/>
      <point x="295" y="468" type="line"/>
      <point x="295" y="500" type="line"/>
      <point x="133" y="500" type="line"/>
      <point x="133" y="560" type="line" smooth="yes"/>
      <point x="133" y="680"/>
      <point x="157" y="707"/>
      <point x="225" y="707" type="curve" smooth="yes"/>
      <point x="245" y="707"/>
      <point x="289" y="706"/>
      <point x="317" y="705" type="curve"/>
      <point x="317" y="736" type="line"/>
      <point x="317" y="736"/>
      <point x="249" y="739"/>
      <point x="225" y="739" type="curve" smooth="yes"/>
      <point x="134" y="739"/>
      <point x="98" y="705"/>
      <point x="98" y="561" type="curve" smooth="yes"/>
      <point x="98" y="500" type="line"/>
      <point x="29" y="500" type="line"/>
      <point x="29" y="468" type="line"/>
      <point x="98" y="468" type="line"/>
    </contour>
  </outline>
</glyph>
<glyph name="g" format="2">
  <advance width="501"/>
  <unicode hex="0067"/>
  <outline>
    <contour>
      <point x="256" y="-239" type="curve" smooth="yes" name="hr00"/>
      <point x="405" y="-239"/>
      <point x="469" y="-193"/>
      <point x="469" y="-85" type="curve" smooth="yes"/>
      <point x="469" y="39"/>
      <point x="416" y="59"/>
      <point x="292" y="59" type="curve" smooth="yes"/>
      <point x="161" y="59"/>
      <point x="155" y="64"/>
      <point x="155" y="113" type="curve" smooth="yes"/>
      <point x="155" y="122"/>
      <point x="168" y="158"/>
      <point x="178" y="183" type="curve"/>
      <point x="190" y="181"/>
      <point x="224" y="179"/>
      <point x="232" y="179" type="curve" smooth="yes"/>
      <point x="355" y="179"/>
      <point x="414" y="220"/>
      <point x="414" y="343" type="curve" smooth="yes"/>
      <point x="414" y="412"/>
      <point x="399" y="442"/>
      <point x="374" y="465" type="curve"/>
      <point x="482" y="465" type="line"/>
      <point x="482" y="500" type="line"/>
      <point x="342" y="497" type="line"/>
      <point x="320" y="503"/>
      <point x="275" y="510"/>
      <point x="236" y="510" type="curve" smooth="yes"/>
      <point x="129" y="510"/>
      <point x="65" y="462"/>
      <point x="65" y="343" type="curve" smooth="yes"/>
      <point x="65" y="247"/>
      <point x="105" y="206"/>
      <point x="151" y="191" type="curve"/>
      <point x="138" y="164"/>
      <point x="121" y="124"/>
      <point x="121" y="113" type="curve" smooth="yes"/>
      <point x="121" y="82"/>
      <point x="127" y="58"/>
      <point x="143" y="48" type="curve"/>
      <point x="89" y="9"/>
      <point x="58" y="-14"/>
      <point x="58" y="-80" type="curve" smooth="yes"/>
      <point x="58" y="-198"/>
      <point x="90" y="-239"/>
    </contour>
    <contour>
      <point x="257" y="-207" type="curve" smooth="yes"/>
      <point x="119" y="-207"/>
      <point x="94" y="-174"/>
      <point x="94" y="-79" type="curve" smooth="yes"/>
      <point x="94" y="-31"/>
      <point x="111" y="-10"/>
      <point x="169" y="30" type="curve"/>
      <point x="171" y="30"/>
      <point x="263" y="27"/>
      <point x="290" y="27" type="curve" smooth="yes"/>
      <point x="391" y="27"/>
      <point x="432" y="16"/>
      <point x="432" y="-85" type="curve" smooth="yes"/>
      <point x="432" y="-171"/>
      <point x="381" y="-207"/>
    </contour>
    <contour>
      <point x="235" y="211" type="curve" smooth="yes"/>
      <point x="141" y="211"/>
      <point x="101" y="243"/>
      <point x="101" y="343" type="curve" smooth="yes"/>
      <point x="101" y="443"/>
      <point x="141" y="478"/>
      <point x="235" y="478" type="curve" smooth="yes"/>
      <point x="340" y="478"/>
      <point x="377" y="443"/>
      <point x="377" y="343" type="curve" smooth="yes"/>
      <point x="377" y="243"/>
      <point x="340" y="211"/>
    </contour>
  </outline>
</glyph>
<glyph name="p" format="2">
  <advance width="516"/>
  <unicode hex="0070"/>
  <outline>
    <contour>
      <point x="79" y="-230" type="line"/>
      <point x="114" y="-230" type="line"/>
      <point x="114" y="5" type="line"/>
      <point x="137" y="0"/>
      <point x="192" y="-9"/>
      <point x="246" y="-9" type="curve" smooth="yes"/>
      <point x="401" y="-9"/>
      <point x="458" y="72"/>
      <point x="458" y="258" type="curve" smooth="yes"/>
      <point x="458" y="428"/>
      <point x="409" y="509"/>
      <point x="287" y="509" type="curve" smooth="yes"/>
      <point x="221" y="509"/>
      <point x="149" y="480"/>
      <point x="114" y="458" type="curve"/>
      <point x="114" y="500" type="line"/>
      <point x="79" y="500" type="line"/>
    </contour>
    <contour>
      <point x="246" y="23" type="curve" smooth="yes"/>
      <point x="192" y="23"/>
      <point x="136" y="33"/>
      <point x="114" y="37" type="curve"/>
      <point x="114" y="424" type="line"/>
      <point x="151" y="447"/>
      <point x="224" y="477"/>
      <point x="287" y="477" type="curve" smooth="yes"/>
      <point x="373" y="477"/>
      <point x="421" y="419"/>
      <point x="421" y="258" type="curve" smooth="yes"/>
      <point x="421" y="88"/>
      <point x="375" y="23"/>
    </contour>
  </outline>
</glyph>
<glyph name="u" format="2">
  <advance width="516"/>
  <unicode hex="0075"/>
  <outline>
    <contour>
      <point x="227" y="-9" type="curve" smooth="yes"/>
      <point x="312" y="-9"/>
      <point x="367" y="20"/>
      <point x="402" y="40" type="curve"/>
      <point x="402" y="0" type="line"/>
      <point x="437" y="0" type="line"/>
      <point x="437" y="500" type="line"/>
      <point x="402" y="500" type="line"/>
      <point x="402" y="73" type="line"/>
      <point x="367" y="51"/>
      <point x="307" y="23"/>
      <point x="232" y="23" type="curve" smooth="yes"/>
      <point x="127" y="23"/>
      <point x="109" y="77"/>
      <point x="109" y="242" type="curve" smooth="yes"/>
      <point x="109" y="500" type="line"/>
      <point x="74" y="500" type="line"/>
      <point x="74" y="240" type="line" smooth="yes"/>
      <point x="74" y="54"/>
      <point x="102" y="-9"/>
    </contour>
  </outline>
</glyph>
<glyph name="w" format="2">
  <advance width="756"/>
  <unicode hex="0077"/>
  <outline>
    <contour>
      <point x="171" y="0" type="line"/>
      <point x="239" y="0" type="line"/>
      <point x="378" y="448" type="line"/>
      <point x="517" y="0" type="line"/>
      <point x="585" y="0" type="line"/>
      <point x="720" y="500" type="line"/>
      <point x="683" y="500" type="line"/>
      <point x="556" y="32" type="line"/>
      <point x="545" y="32" type="line"/>
      <point x="397" y="490" type="line"/>
      <point x="359" y="490" type="line"/>
      <point x="211" y="32" type="line"/>
      <point x="200" y="32" type="line"/>
      <point x="73" y="500" type="line"/>
      <point x="36" y="500" type="line"/>
    </contour>
  </outline>
</glyph>
<glyph name="x" format="2">
  <advance width="437"/>
  <unicode hex="0078"/>
  <outline>
    <contour>
      <point x="28" y="0" type="line"/>
      <point x="69" y="0" type="line"/>
      <point x="218" y="223" type="line"/>
      <point x="367" y="0" type="line"/>
      <point x="408" y="0" type="line"/>
      <point x="239" y="250" type="line"/>
      <point x="409" y="500" type="line"/>
      <point x="368" y="500" type="line"/>
      <point x="218" y="277" type="line"/>
      <point x="69" y="500" type="line"/>
      <point x="28" y="500" type="line"/>
      <point x="197" y="250" type="line"/>
    </contour>
  </outline>
</glyph>
<glyph name="bar" format="2">
  <advance width="205"/>
  <unicode hex="007C"/>
  <outline>
    <contour>
      <point x="85" y="-230" type="line"/>
      <point x="120" y="-230" type="line"/>
      <point x="120" y="730" type="line"/>
      <point x="85" y="730" type="line"/>
    </contour>
  </outline>
</glyph>
<glyph name="braceright" format="2">
  <advance width="346"/>
  <unicode hex="007D"/>
  <outline>
    <contour>
      <point x="44" y="-124" type="line"/>
      <point x="172" y="-119"/>
      <point x="220" y="-66"/>
      <point x="220" y="53" type="curve" smooth="yes"/>
      <point x="220" y="75"/>
      <point x="218" y="102"/>
      <point x="216" y="127" type="curve" smooth="yes"/>
      <point x="214" y="147"/>
      <point x="213" y="165"/>
      <point x="213" y="176" type="curve" smooth="yes"/>
      <point x="213" y="240"/>
      <point x="241" y="272"/>
      <point x="317" y="294" type="curve"/>
      <point x="317" y="326" type="line"/>
      <point x="240" y="345"/>
      <point x="213" y="381"/>
      <point x="213" y="446" type="curve" smooth="yes"/>
      <point x="213" y="459"/>
      <point x="215" y="480"/>
      <point x="216" y="502" type="curve" smooth="yes"/>
      <point x="218" y="527"/>
      <point x="220" y="554"/>
      <point x="220" y="574" type="curve" smooth="yes"/>
      <point x="220" y="693"/>
      <point x="172" y="746"/>
      <point x="44" y="751" type="curve"/>
      <point x="42" y="719" type="line"/>
      <point x="156" y="714"/>
      <point x="185" y="664"/>
      <point x="185" y="574" type="curve" smooth="yes"/>
      <point x="185" y="557"/>
      <point x="183" y="534"/>
      <point x="181" y="511" type="curve" smooth="yes"/>
      <point x="180" y="490"/>
      <point x="178" y="469"/>
      <point x="178" y="455" type="curve" smooth="yes"/>
      <point x="178" y="367"/>
      <point x="205" y="335"/>
      <point x="278" y="311" type="curve"/>
      <point x="205" y="287"/>
      <point x="178" y="253"/>
      <point x="178" y="169" type="curve"/>
      <point x="179" y="154"/>
      <point x="180" y="140"/>
      <point x="181" y="125" type="curve" smooth="yes"/>
      <point x="183" y="101"/>
      <point x="185" y="77"/>
      <point x="185" y="53" type="curve" smooth="yes"/>
      <point x="185" y="-35"/>
      <point x="156" y="-87"/>
      <point x="42" y="-92" type="curve"/>
    </contour>
  </outline>
</glyph>
<glyph name="asciitilde" format="2">
  <advance width="560"/>
  <unicode hex="007E"/>
  <outline>
    <contour>
      <point x="381" y="212" type="curve" smooth="yes"/>
      <point x="418" y="212"/>
      <point x="466" y="243"/>
      <point x="493" y="267" type="curve"/>
      <point x="482" y="298" type="line"/>
      <point x="454" y="276"/>
      <point x="406" y="246"/>
      <point x="380" y="246" type="curve" smooth="yes"/>
      <point x="338" y="246"/>
      <point x="237" y="319"/>
      <point x="183" y="319" type="curve" smooth="yes"/>
      <point x="147" y="319"/>
      <point x="98" y="288"/>
      <point x="71" y="265" type="curve"/>
      <point x="82" y="233" type="line"/>
      <point x="110" y="255"/>
      <point x="158" y="285"/>
      <point x="184" y="285" type="curve" smooth="yes"/>
      <point x="226" y="285"/>
      <point x="327" y="212"/>
    </contour>
  </outline>
</glyph>
<glyph name="currency" format="2">
  <advance width="560"/>
  <unicode hex="00A4"/>
  <outline>
    <contour>
      <point x="280" y="82" type="curve" smooth="yes"/>
      <point x="374" y="82"/>
      <point x="450" y="158"/>
      <point x="450" y="252" type="curve" smooth="yes"/>
      <point x="450" y="346"/>
      <point x="374" y="422"/>
      <point x="280" y="422" type="curve" smooth="yes"/>
      <point x="186" y="422"/>
      <point x="110" y="346"/>
      <point x="110" y="252" type="curve" smooth="yes"/>
      <point x="110" y="158"/>
      <point x="186" y="82"/>
    </contour>
    <contour>
      <point x="103" y="49" type="line"/>
      <point x="197" y="144" type="line"/>
      <point x="172" y="169" type="line"/>
      <point x="77" y="75" type="line"/>
    </contour>
    <contour>
      <point x="280" y="118" type="curve" smooth="yes"/>
      <point x="207" y="118"/>
      <point x="146" y="179"/>
      <point x="146" y="252" type="curve" smooth="yes"/>
      <point x="146" y="325"/>
      <point x="207" y="386"/>
      <point x="280" y="386" type="curve" smooth="yes"/>
      <point x="353" y="386"/>
      <point x="414" y="325"/>
      <point x="414" y="252" type="curve" smooth="yes"/>
      <point x="414" y="179"/>
      <point x="353" y="118"/>
    </contour>
    <contour>
      <point x="172" y="335" type="line"/>
      <point x="197" y="360" type="line"/>
      <point x="103" y="455" type="line"/>
      <point x="77" y="429" type="line"/>
    </contour>
    <contour>
      <point x="457" y="49" type="line"/>
      <point x="483" y="75" type="line"/>
      <point x="388" y="169" type="line"/>
      <point x="363" y="144" type="line"/>
    </contour>
    <contour>
      <point x="388" y="335" type="line"/>
      <point x="483" y="429" type="line"/>
      <point x="457" y="455" type="line"/>
      <point x="363" y="360" type="line"/>
    </contour>
  </outline>
</glyph>
<glyph name="brokenbar" format="2">
  <advance width="209"/>
  <unicode hex="00A6"/>
  <outline>
    <contour>
      <point x="87" y="354" type="line"/>
      <point x="122" y="354" type="line"/>
      <point x="122" y="730" type="line"/>
      <point x="87" y="730" type="line"/>
    </contour>
    <contour>
      <point x="87" y="-230" type="line"/>
      <point x="122" y="-230" type="line"/>
      <point x="122" y="146" type="line"/>
      <point x="87" y="146" type="line"/>
    </contour>
  </outline>
</glyph>
<glyph name="section" format="2">
  <advance width="487"/>
  <unicode hex="00A7"/>
  <outline>
    <contour>
      <point x="245" y="-123" type="curve" smooth="yes"/>
      <point x="356" y="-123"/>
      <point x="418" y="-69"/>
      <point x="418" y="35" type="curve" smooth="yes"/>
      <point x="418" y="80"/>
      <point x="406" y="109"/>
      <point x="382" y="128" type="curve"/>
      <point x="399" y="155"/>
      <point x="421" y="208"/>
      <point x="421" y="255" type="curve" smooth="yes"/>
      <point x="421" y="354"/>
      <point x="358" y="379"/>
      <point x="255" y="395" type="curve" smooth="yes"/>
      <point x="156" y="410"/>
      <point x="107" y="425"/>
      <point x="107" y="518" type="curve" smooth="yes"/>
      <point x="107" y="593"/>
      <point x="158" y="628"/>
      <point x="247" y="628" type="curve" smooth="yes"/>
      <point x="282" y="628"/>
      <point x="355" y="621"/>
      <point x="401" y="615" type="curve"/>
      <point x="403" y="647" type="line"/>
      <point x="363" y="653"/>
      <point x="293" y="660"/>
      <point x="247" y="660" type="curve" smooth="yes"/>
      <point x="138" y="660"/>
      <point x="72" y="613"/>
      <point x="72" y="517" type="curve" smooth="yes"/>
      <point x="72" y="458"/>
      <point x="87" y="425"/>
      <point x="116" y="403" type="curve"/>
      <point x="93" y="381"/>
      <point x="62" y="333"/>
      <point x="62" y="283" type="curve" smooth="yes"/>
      <point x="62" y="185"/>
      <point x="125" y="155"/>
      <point x="238" y="139" type="curve" smooth="yes"/>
      <point x="332" y="126"/>
      <point x="383" y="117"/>
      <point x="383" y="34" type="curve" smooth="yes"/>
      <point x="383" y="-51"/>
      <point x="333" y="-92"/>
      <point x="245" y="-92" type="curve" smooth="yes"/>
      <point x="205" y="-92"/>
      <point x="127" y="-84"/>
      <point x="80" y="-78" type="curve"/>
      <point x="77" y="-110" type="line"/>
      <point x="123" y="-116"/>
      <point x="201" y="-123"/>
    </contour>
    <contour>
      <point x="356" y="144" type="curve"/>
      <point x="329" y="157"/>
      <point x="291" y="164"/>
      <point x="245" y="171" type="curve" smooth="yes"/>
      <point x="146" y="185"/>
      <point x="97" y="210"/>
      <point x="97" y="285" type="curve" smooth="yes"/>
      <point x="97" y="322"/>
      <point x="122" y="366"/>
      <point x="141" y="389" type="curve"/>
      <point x="169" y="376"/>
      <point x="205" y="370"/>
      <point x="248" y="363" type="curve" smooth="yes"/>
      <point x="332" y="350"/>
      <point x="386" y="335"/>
      <point x="386" y="252" type="curve" smooth="yes"/>
      <point x="386" y="211"/>
      <point x="369" y="166"/>
    </contour>
  </outline>
</glyph>
<glyph name="dieresis" format="2">
  <advance width="215"/>
  <unicode hex="00A8"/>
  <outline>
    <contour>
      <point x="190" y="638" type="line"/>
      <point x="225" y="638" type="line"/>
      <point x="225" y="700" type="line"/>
      <point x="190" y="700" type="line"/>
    </contour>
    <contour>
      <point x="0" y="638" type="line"/>
      <point x="35" y="638" type="line"/>
      <point x="35" y="700" type="line"/>
      <point x="0" y="700" type="line"/>
    </contour>
  </outline>
</glyph>
<glyph name="softhyphen" format="2">
  <advance width="459"/>
  <unicode hex="00AD"/>
  <outline>
    <contour>
      <point x="76" y="264" type="line"/>
      <point x="383" y="264" type="line"/>
      <point x="383" y="298" type="line"/>
      <point x="76" y="298" type="line"/>
    </contour>
  </outline>
</glyph>
<glyph name="registered" format="2">
  <advance width="647"/>
  <unicode hex="00AE"/>
  <outline>
    <contour>
      <point x="323" y="169" type="curve" smooth="yes"/>
      <point x="470" y="169"/>
      <point x="579" y="287"/>
      <point x="579" y="434" type="curve" smooth="yes"/>
      <point x="579" y="581"/>
      <point x="470" y="700"/>
      <point x="323" y="700" type="curve" smooth="yes"/>
      <point x="176" y="700"/>
      <point x="68" y="581"/>
      <point x="68" y="434" type="curve" smooth="yes"/>
      <point x="68" y="287"/>
      <point x="176" y="169"/>
    </contour>
    <contour>
      <point x="323" y="201" type="curve" smooth="yes"/>
      <point x="194" y="201"/>
      <point x="100" y="305"/>
      <point x="100" y="434" type="curve" smooth="yes"/>
      <point x="100" y="563"/>
      <point x="194" y="668"/>
      <point x="323" y="668" type="curve" smooth="yes"/>
      <point x="452" y="668"/>
      <point x="547" y="563"/>
      <point x="547" y="434" type="curve" smooth="yes"/>
      <point x="547" y="305"/>
      <point x="452" y="201"/>
    </contour>
    <contour>
      <point x="221" y="286" type="line"/>
      <point x="253" y="286" type="line"/>
      <point x="253" y="402" type="line"/>
      <point x="332" y="402" type="line"/>
      <point x="398" y="286" type="line"/>
      <point x="433" y="286" type="line"/>
      <point x="368" y="405" type="line"/>
      <point x="412" y="416"/>
      <point x="427" y="445"/>
      <point x="427" y="492" type="curve" smooth="yes"/>
      <point x="427" y="560"/>
      <point x="390" y="581"/>
      <point x="314" y="581" type="curve" smooth="yes"/>
      <point x="221" y="581" type="line"/>
    </contour>
    <contour>
      <point x="253" y="433" type="line"/>
      <point x="253" y="550" type="line"/>
      <point x="315" y="550" type="line" smooth="yes"/>
      <point x="369" y="550"/>
      <point x="395" y="537"/>
      <point x="395" y="492" type="curve" smooth="yes"/>
      <point x="395" y="447"/>
      <point x="377" y="433"/>
      <point x="333" y="433" type="curve" smooth="yes"/>
    </contour>
  </outline>
</glyph>
<glyph name="macron" format="2">
  <advance width="215"/>
  <unicode hex="00AF"/>
  <outline>
    <contour>
      <point x="-20" y="642" type="line"/>
      <point x="247" y="642" type="line"/>
      <point x="247" y="674" type="line"/>
      <point x="-20" y="674" type="line"/>
    </contour>
  </outline>
</glyph>
<glyph name="twosuperior" format="2">
  <advance width="280"/>
  <unicode hex="00B2"/>
  <outline>
    <contour>
      <point x="36" y="478" type="line"/>
      <point x="230" y="478" type="line"/>
      <point x="230" y="511" type="line"/>
      <point x="79" y="511" type="line"/>
      <point x="159" y="594" type="line" smooth="yes"/>
      <point x="203" y="639"/>
      <point x="223" y="667"/>
      <point x="223" y="714" type="curve" smooth="yes"/>
      <point x="223" y="771"/>
      <point x="192" y="799"/>
      <point x="132" y="799" type="curve" smooth="yes"/>
      <point x="101" y="799"/>
      <point x="61" y="792"/>
      <point x="39" y="786" type="curve"/>
      <point x="41" y="757" type="line"/>
      <point x="65" y="761"/>
      <point x="106" y="767"/>
      <point x="131" y="767" type="curve" smooth="yes"/>
      <point x="163" y="767"/>
      <point x="188" y="751"/>
      <point x="188" y="715" type="curve" smooth="yes"/>
      <point x="188" y="675"/>
      <point x="163" y="647"/>
      <point x="134" y="616" type="curve" smooth="yes"/>
      <point x="36" y="509" type="line"/>
    </contour>
  </outline>
</glyph>
<glyph name="threesuperior" format="2">
  <advance width="280"/>
  <unicode hex="00B3"/>
  <outline>
    <contour>
      <point x="141" y="469" type="curve" smooth="yes"/>
      <point x="210" y="469"/>
      <point x="242" y="499"/>
      <point x="242" y="566" type="curve" smooth="yes"/>
      <point x="242" y="619"/>
      <point x="222" y="633"/>
      <point x="187" y="643" type="curve"/>
      <point x="209" y="651"/>
      <point x="233" y="675"/>
      <point x="233" y="722" type="curve" smooth="yes"/>
      <point x="233" y="775"/>
      <point x="203" y="799"/>
      <point x="137" y="799" type="curve" smooth="yes"/>
      <point x="107" y="799"/>
      <point x="67" y="794"/>
      <point x="41" y="790" type="curve"/>
      <point x="44" y="757" type="line"/>
      <point x="66" y="761"/>
      <point x="108" y="766"/>
      <point x="135" y="766" type="curve" smooth="yes"/>
      <point x="179" y="766"/>
      <point x="198" y="753"/>
      <point x="198" y="722" type="curve" smooth="yes"/>
      <point x="198" y="683"/>
      <point x="169" y="656"/>
      <point x="147" y="656" type="curve" smooth="yes"/>
      <point x="82" y="656" type="line"/>
      <point x="82" y="623" type="line"/>
      <point x="147" y="623" type="line" smooth="yes"/>
      <point x="181" y="623"/>
      <point x="207" y="607"/>
      <point x="207" y="562" type="curve" smooth="yes"/>
      <point x="207" y="521"/>
      <point x="185" y="502"/>
      <point x="136" y="502" type="curve" smooth="yes"/>
      <point x="111" y="502"/>
      <point x="63" y="507"/>
      <point x="40" y="511" type="curve"/>
      <point x="37" y="480" type="line"/>
      <point x="62" y="475"/>
      <point x="109" y="469"/>
    </contour>
  </outline>
</glyph>
<glyph name="onesuperior" format="2">
  <advance width="280"/>
  <unicode hex="00B9"/>
  <outline>
    <contour>
      <point x="145" y="478" type="line"/>
      <point x="180" y="478" type="line"/>
      <point x="180" y="790" type="line"/>
      <point x="145" y="790" type="line"/>
      <point x="46" y="723" type="line"/>
      <point x="63" y="695" type="line"/>
      <point x="145" y="751" type="line"/>
    </contour>
  </outline>
</glyph>
<glyph name="guillemotright" format="2">
  <advance width="497"/>
  <unicode hex="00BB"/>
  <outline>
    <contour>
      <point x="449" y="234" type="line"/>
      <point x="449" y="270" type="line"/>
      <point x="282" y="399" type="line"/>
      <point x="282" y="360" type="line"/>
      <point x="417" y="254" type="line"/>
      <point x="282" y="137" type="line"/>
      <point x="282" y="96" type="line"/>
    </contour>
    <contour>
      <point x="242" y="234" type="line"/>
      <point x="242" y="270" type="line"/>
      <point x="75" y="399" type="line"/>
      <point x="75" y="360" type="line"/>
      <point x="210" y="254" type="line"/>
      <point x="75" y="137" type="line"/>
      <point x="75" y="96" type="line"/>
    </contour>
  </outline>
</glyph>
<glyph name="questiondown" format="2">
  <advance width="447"/>
  <unicode hex="00BF"/>
  <outline>
    <contour>
      <point x="276" y="311" type="curve"/>
      <point x="242" y="311" type="line"/>
      <point x="242" y="273" type="line" smooth="yes"/>
      <point x="242" y="217"/>
      <point x="195" y="177"/>
      <point x="144" y="132" type="curve" smooth="yes"/>
      <point x="60" y="58"/>
      <point x="43" y="32"/>
      <point x="43" y="-50" type="curve" smooth="yes"/>
      <point x="43" y="-167"/>
      <point x="116" y="-208"/>
      <point x="243" y="-208" type="curve" smooth="yes"/>
      <point x="282" y="-208"/>
      <point x="361" y="-193"/>
      <point x="409" y="-181" type="curve"/>
      <point x="404" y="-147" type="line"/>
      <point x="355" y="-159"/>
      <point x="278" y="-175"/>
      <point x="243" y="-175" type="curve" smooth="yes"/>
      <point x="137" y="-175"/>
      <point x="78" y="-146"/>
      <point x="78" y="-50" type="curve" smooth="yes"/>
      <point x="78" y="19"/>
      <point x="99" y="46"/>
      <point x="170" y="110" type="curve" smooth="yes"/>
      <point x="222" y="157"/>
      <point x="277" y="205"/>
      <point x="277" y="270" type="curve" smooth="yes"/>
      <point x="277" y="284"/>
      <point x="276" y="297"/>
    </contour>
    <contour>
      <point x="279" y="500" type="line"/>
      <point x="239" y="500" type="line"/>
      <point x="239" y="420" type="line"/>
      <point x="279" y="420" type="line"/>
    </contour>
  </outline>
</glyph>
<glyph name="AE" format="2">
  <advance width="879"/>
  <unicode hex="00C6"/>
  <outline>
    <contour>
      <point x="25" y="0" type="line"/>
      <point x="65" y="0" type="line"/>
      <point x="143" y="215" type="line"/>
      <point x="419" y="215" type="line"/>
      <point x="419" y="0" type="line"/>
      <point x="828" y="0" type="line"/>
      <point x="828" y="34" type="line"/>
      <point x="455" y="34" type="line"/>
      <point x="455" y="344" type="line"/>
      <point x="768" y="344" type="line"/>
      <point x="768" y="378" type="line"/>
      <point x="455" y="378" type="line"/>
      <point x="455" y="666" type="line"/>
      <point x="828" y="666" type="line"/>
      <point x="828" y="700" type="line"/>
      <point x="276" y="700" type="line"/>
    </contour>
    <contour>
      <point x="155" y="249" type="line"/>
      <point x="304" y="666" type="line"/>
      <point x="419" y="666" type="line"/>
      <point x="419" y="249" type="line"/>
    </contour>
  </outline>
</glyph>
<glyph name="Eth" format="2">
  <advance width="651"/>
  <unicode hex="00D0"/>
  <outline>
    <contour>
      <point x="17" y="334" type="line"/>
      <point x="307" y="334" type="line"/>
      <point x="307" y="368" type="line"/>
      <point x="17" y="368" type="line"/>
    </contour>
    <component base="D" xOffset="2"/>
  </outline>
</glyph>
<glyph name="Thorn" format="2">
  <advance width="601"/>
  <unicode hex="00DE"/>
  <outline>
    <contour>
      <point x="92" y="0" type="line"/>
      <point x="128" y="0" type="line"/>
      <point x="128" y="135" type="line"/>
      <point x="347" y="135" type="line" smooth="yes"/>
      <point x="492" y="135"/>
      <point x="554" y="222"/>
      <point x="554" y="367" type="curve" smooth="yes"/>
      <point x="554" y="512"/>
      <point x="492" y="578"/>
      <point x="347" y="578" type="curve" smooth="yes"/>
      <point x="128" y="578" type="line"/>
      <point x="128" y="700" type="line"/>
      <point x="92" y="700" type="line"/>
    </contour>
    <contour>
      <point x="128" y="169" type="line"/>
      <point x="128" y="544" type="line"/>
      <point x="347" y="544" type="line" smooth="yes"/>
      <point x="468" y="544"/>
      <point x="516" y="488"/>
      <point x="516" y="367" type="curve" smooth="yes"/>
      <point x="516" y="246"/>
      <point x="468" y="169"/>
      <point x="347" y="169" type="curve" smooth="yes"/>
    </contour>
  </outline>
</glyph>
<glyph name="germandbls" format="2">
  <advance width="549"/>
  <unicode hex="00DF"/>
  <outline>
    <contour>
      <point x="306" y="-9" type="curve" smooth="yes"/>
      <point x="452" y="-9"/>
      <point x="506" y="51"/>
      <point x="506" y="186" type="curve" smooth="yes"/>
      <point x="506" y="269"/>
      <point x="471" y="302"/>
      <point x="372" y="353" type="curve" smooth="yes"/>
      <point x="308" y="386"/>
      <point x="288" y="400"/>
      <point x="288" y="422" type="curve" smooth="yes"/>
      <point x="288" y="444"/>
      <point x="302" y="452"/>
      <point x="348" y="473" type="curve" smooth="yes"/>
      <point x="401" y="497"/>
      <point x="421" y="534"/>
      <point x="421" y="603" type="curve" smooth="yes"/>
      <point x="421" y="697"/>
      <point x="380" y="739"/>
      <point x="251" y="739" type="curve" smooth="yes"/>
      <point x="130" y="739"/>
      <point x="79" y="698"/>
      <point x="79" y="561" type="curve" smooth="yes"/>
      <point x="79" y="0" type="line"/>
      <point x="114" y="0" type="line"/>
      <point x="114" y="548" type="line" smooth="yes"/>
      <point x="114" y="679"/>
      <point x="156" y="705"/>
      <point x="251" y="705" type="curve" smooth="yes"/>
      <point x="351" y="705"/>
      <point x="383" y="678"/>
      <point x="383" y="603" type="curve" smooth="yes"/>
      <point x="383" y="548"/>
      <point x="371" y="519"/>
      <point x="328" y="499" type="curve" smooth="yes"/>
      <point x="280" y="477"/>
      <point x="251" y="462"/>
      <point x="251" y="422" type="curve" smooth="yes"/>
      <point x="251" y="382"/>
      <point x="271" y="366"/>
      <point x="347" y="327" type="curve" smooth="yes"/>
      <point x="439" y="280"/>
      <point x="468" y="254"/>
      <point x="468" y="181" type="curve" smooth="yes"/>
      <point x="468" y="77"/>
      <point x="430" y="25"/>
      <point x="306" y="25" type="curve" smooth="yes"/>
      <point x="280" y="25"/>
      <point x="226" y="30"/>
      <point x="193" y="34" type="curve"/>
      <point x="191" y="1" type="line"/>
      <point x="223" y="-3"/>
      <point x="277" y="-9"/>
    </contour>
  </outline>
</glyph>
<glyph name="eth" format="2">
  <advance width="535"/>
  <unicode hex="00F0"/>
  <outline>
    <contour>
      <point x="260" y="-9" type="curve" smooth="yes"/>
      <point x="412" y="-9"/>
      <point x="475" y="84"/>
      <point x="475" y="355" type="curve" smooth="yes"/>
      <point x="475" y="541"/>
      <point x="352" y="669"/>
      <point x="118" y="739" type="curve"/>
      <point x="105" y="708" type="line"/>
      <point x="341" y="638"/>
      <point x="434" y="510"/>
      <point x="438" y="381" type="curve"/>
      <point x="390" y="400"/>
      <point x="306" y="425"/>
      <point x="249" y="425" type="curve" smooth="yes"/>
      <point x="123" y="425"/>
      <point x="45" y="340"/>
      <point x="45" y="214" type="curve" smooth="yes"/>
      <point x="45" y="71"/>
      <point x="127" y="-9"/>
    </contour>
    <contour>
      <point x="260" y="25" type="curve" smooth="yes"/>
      <point x="145" y="25"/>
      <point x="81" y="92"/>
      <point x="81" y="214" type="curve" smooth="yes"/>
      <point x="81" y="318"/>
      <point x="144" y="391"/>
      <point x="251" y="391" type="curve" smooth="yes"/>
      <point x="304" y="391"/>
      <point x="389" y="365"/>
      <point x="439" y="346" type="curve"/>
      <point x="437" y="99"/>
      <point x="390" y="25"/>
    </contour>
    <contour>
      <point x="152" y="556" type="line"/>
      <point x="392" y="718" type="line"/>
      <point x="372" y="745" type="line"/>
      <point x="132" y="583" type="line"/>
    </contour>
  </outline>
</glyph>
<glyph name="Gdotaccent" format="2">
  <advance width="619"/>
  <unicode hex="0120"/>
  <outline>
    <contour>
      <point x="296" y="823" type="line"/>
      <point x="331" y="823" type="line"/>
      <point x="331" y="878" type="line"/>
      <point x="296" y="878" type="line"/>
    </contour>
    <component base="G"/>
  </outline>
</glyph>
<glyph name="gcommaaccent" format="2">
  <advance width="501"/>
  <unicode hex="0123"/>
  <outline>
    <contour>
      <point x="207" y="593" type="line"/>
      <point x="244" y="593" type="line"/>
      <point x="281" y="782" type="line"/>
      <point x="253" y="782" type="line"/>
    </contour>
    <component base="g"/>
  </outline>
</glyph>
<glyph name="Hbar" format="2">
  <advance width="686"/>
  <unicode hex="0126"/>
  <outline>
    <contour>
      <point x="12" y="522" type="line"/>
      <point x="679" y="522" type="line"/>
      <point x="679" y="554" type="line"/>
      <point x="12" y="554" type="line"/>
    </contour>
    <component base="H" xOffset="4"/>
  </outline>
</glyph>
<glyph name="Idotaccent" format="2">
  <advance width="220"/>
  <unicode hex="0130"/>
  <outline>
    <contour>
      <point x="93" y="823" type="line"/>
      <point x="128" y="823" type="line"/>
      <point x="128" y="878" type="line"/>
      <point x="93" y="878" type="line"/>
    </contour>
    <component base="I"/>
  </outline>
</glyph>
<glyph name="Lcaron" format="2">
  <advance width="492"/>
  <unicode hex="013D"/>
  <outline>
    <contour>
      <point x="390" y="483" type="line"/>
      <point x="424" y="483" type="line"/>
      <point x="424" y="700" type="line"/>
      <point x="390" y="700" type="line"/>
    </contour>
    <component base="L"/>
  </outline>
</glyph>
<glyph name="lcaron" format="2">
  <advance width="199"/>
  <unicode hex="013E"/>
  <outline>
    <contour>
      <point x="186" y="498" type="line"/>
      <point x="214" y="498" type="line"/>
      <point x="260" y="687" type="line"/>
      <point x="223" y="687" type="line"/>
    </contour>
    <component base="l"/>
  </outline>
</glyph>
<glyph name="Eng" format="2">
  <advance width="671"/>
  <unicode hex="014A"/>
  <outline>
    <contour>
      <point x="400" y="-152" type="line"/>
      <point x="520" y="-152"/>
      <point x="573" y="-148"/>
      <point x="573" y="2" type="curve" smooth="yes"/>
      <point x="573" y="48" type="line"/>
      <point x="537" y="48" type="line"/>
      <point x="537" y="17" type="line" smooth="yes"/>
      <point x="537" y="-116"/>
      <point x="517" y="-118"/>
      <point x="400" y="-118" type="curve"/>
    </contour>
    <component base="N"/>
  </outline>
</glyph>
<glyph name="eng" format="2">
  <advance width="528"/>
  <unicode hex="014B"/>
  <outline>
    <contour>
      <point x="305" y="-230" type="line"/>
      <point x="424" y="-161"/>
      <point x="454" y="-122"/>
      <point x="454" y="-7" type="curve" smooth="yes"/>
      <point x="454" y="260" type="line" smooth="yes"/>
      <point x="454" y="444"/>
      <point x="426" y="509"/>
      <point x="290" y="509" type="curve" smooth="yes"/>
      <point x="227" y="509"/>
      <point x="153" y="481"/>
      <point x="114" y="460" type="curve"/>
      <point x="114" y="500" type="line"/>
      <point x="79" y="500" type="line"/>
      <point x="79" y="0" type="line"/>
      <point x="114" y="0" type="line"/>
      <point x="114" y="427" type="line"/>
      <point x="151" y="449"/>
      <point x="225" y="477"/>
      <point x="290" y="477" type="curve" smooth="yes"/>
      <point x="401" y="477"/>
      <point x="419" y="418"/>
      <point x="419" y="258" type="curve" smooth="yes"/>
      <point x="419" y="-6" type="line" smooth="yes"/>
      <point x="419" y="-104"/>
      <point x="395" y="-137"/>
      <point x="291" y="-199" type="curve"/>
    </contour>
  </outline>
</glyph>
<glyph name="tcaron" format="2">
  <advance width="395"/>
  <unicode hex="0165"/>
  <outline>
    <contour>
      <point x="366" y="483" type="line"/>
      <point x="400" y="483" type="line"/>
      <point x="400" y="700" type="line"/>
      <point x="366" y="700" type="line"/>
    </contour>
    <component base="t"/>
  </outline>
</glyph>
<glyph name="tbar" format="2">
  <advance width="347"/>
  <unicode hex="0167"/>
  <outline>
    <contour>
      <point x="239" y="-10" type="curve" smooth="yes"/>
      <point x="265" y="-10"/>
      <point x="312" y="-5"/>
      <point x="340" y="-2" type="curve"/>
      <point x="337" y="30" type="line"/>
      <point x="307" y="27"/>
      <point x="259" y="22"/>
      <point x="239" y="22" type="curve" smooth="yes"/>
      <point x="158" y="22"/>
      <point x="147" y="57"/>
      <point x="147" y="206" type="curve" smooth="yes"/>
      <point x="147" y="468" type="line"/>
      <point x="329" y="468" type="line"/>
      <point x="329" y="500" type="line"/>
      <point x="147" y="500" type="line"/>
      <point x="147" y="663" type="line"/>
      <point x="112" y="663" type="line"/>
      <point x="112" y="500" type="line"/>
      <point x="33" y="500" type="line"/>
      <point x="33" y="468" type="line"/>
      <point x="112" y="468" type="line"/>
      <point x="112" y="168" type="line" smooth="yes"/>
      <point x="112" y="24"/>
      <point x="148" y="-10"/>
    </contour>
    <contour>
      <point x="41" y="282" type="line"/>
      <point x="308" y="282" type="line"/>
      <point x="308" y="314" type="line"/>
      <point x="41" y="314" type="line"/>
    </contour>
  </outline>
</glyph>
<glyph name="florin" format="2">
  <advance width="560"/>
  <unicode hex="0192"/>
  <outline>
    <contour>
      <point x="127" y="-239" type="curve" smooth="yes"/>
      <point x="218" y="-239"/>
      <point x="254" y="-194"/>
      <point x="254" y="-60" type="curve" smooth="yes"/>
      <point x="254" y="352" type="line"/>
      <point x="416" y="352" type="line"/>
      <point x="416" y="384" type="line"/>
      <point x="254" y="384" type="line"/>
      <point x="254" y="494" type="line" smooth="yes"/>
      <point x="254" y="594"/>
      <point x="289" y="640"/>
      <point x="346" y="640" type="curve" smooth="yes"/>
      <point x="379" y="640"/>
      <point x="417" y="637"/>
      <point x="437" y="635" type="curve"/>
      <point x="439" y="667" type="line"/>
      <point x="418" y="670"/>
      <point x="379" y="673"/>
      <point x="346" y="673" type="curve" smooth="yes"/>
      <point x="224" y="673"/>
      <point x="219" y="548"/>
      <point x="219" y="458" type="curve" smooth="yes"/>
      <point x="219" y="384" type="line"/>
      <point x="150" y="384" type="line"/>
      <point x="150" y="352" type="line"/>
      <point x="219" y="352" type="line"/>
      <point x="219" y="-60" type="line" smooth="yes"/>
      <point x="219" y="-170"/>
      <point x="194" y="-206"/>
      <point x="127" y="-206" type="curve" smooth="yes"/>
      <point x="104" y="-206"/>
      <point x="62" y="-203"/>
      <point x="37" y="-201" type="curve"/>
      <point x="35" y="-234" type="line"/>
      <point x="60" y="-236"/>
      <point x="101" y="-239"/>
    </contour>
  </outline>
</glyph>
<glyph name="circumflex" format="2">
  <advance width="215"/>
  <unicode hex="02C6"/>
  <outline>
    <contour>
      <point x="-15" y="600" type="line"/>
      <point x="28" y="600" type="line"/>
      <point x="121" y="700" type="line"/>
      <point x="213" y="600" type="line"/>
      <point x="256" y="600" type="line"/>
      <point x="134" y="732" type="line"/>
      <point x="106" y="732" type="line"/>
    </contour>
  </outline>
</glyph>
<glyph name="caron" format="2">
  <advance width="215"/>
  <unicode hex="02C7"/>
  <outline>
    <contour>
      <point x="106" y="600" type="line"/>
      <point x="134" y="600" type="line"/>
      <point x="256" y="732" type="line"/>
      <point x="214" y="732" type="line"/>
      <point x="121" y="633" type="line"/>
      <point x="27" y="732" type="line"/>
      <point x="-15" y="732" type="line"/>
    </contour>
  </outline>
</glyph>
<glyph name="ring" format="2">
  <advance width="215"/>
  <unicode hex="02DA"/>
  <outline>
    <contour>
      <point x="112" y="555" type="curve" smooth="yes"/>
      <point x="165" y="555"/>
      <point x="206" y="596"/>
      <point x="206" y="650" type="curve" smooth="yes"/>
      <point x="206" y="703"/>
      <point x="165" y="745"/>
      <point x="112" y="745" type="curve" smooth="yes"/>
      <point x="58" y="745"/>
      <point x="16" y="703"/>
      <point x="16" y="650" type="curve" smooth="yes"/>
      <point x="16" y="596"/>
      <point x="58" y="555"/>
    </contour>
    <contour>
      <point x="112" y="586" type="curve" smooth="yes"/>
      <point x="77" y="586"/>
      <point x="50" y="615"/>
      <point x="50" y="650" type="curve" smooth="yes"/>
      <point x="50" y="684"/>
      <point x="77" y="713"/>
      <point x="112" y="713" type="curve" smooth="yes"/>
      <point x="146" y="713"/>
      <point x="173" y="684"/>
      <point x="173" y="650" type="curve" smooth="yes"/>
      <point x="173" y="615"/>
      <point x="146" y="586"/>
    </contour>
  </outline>
</glyph>
<glyph name="tilde" format="2">
  <advance width="215"/>
  <unicode hex="02DC"/>
  <outline>
    <contour>
      <point x="192" y="630" type="curve" smooth="yes"/>
      <point x="215" y="630"/>
      <point x="247" y="655"/>
      <point x="265" y="673" type="curve"/>
      <point x="256" y="703" type="line"/>
      <point x="237" y="685"/>
      <point x="207" y="662"/>
      <point x="194" y="662" type="curve" smooth="yes"/>
      <point x="179" y="662"/>
      <point x="154" y="674"/>
      <point x="128" y="686" type="curve" smooth="yes"/>
      <point x="99" y="700"/>
      <point x="68" y="715"/>
      <point x="47" y="715" type="curve" smooth="yes"/>
      <point x="23" y="715"/>
      <point x="-14" y="688"/>
      <point x="-35" y="668" type="curve"/>
      <point x="-25" y="639" type="line"/>
      <point x="-4" y="658"/>
      <point x="30" y="684"/>
      <point x="45" y="684" type="curve" smooth="yes"/>
      <point x="60" y="684"/>
      <point x="85" y="672"/>
      <point x="111" y="659" type="curve" smooth="yes"/>
      <point x="140" y="645"/>
      <point x="171" y="630"/>
    </contour>
  </outline>
</glyph>
<glyph name="pi" format="2">
  <advance width="560"/>
  <unicode hex="03C0"/>
  <outline>
    <contour>
      <point x="519" y="0" type="curve"/>
      <point x="519" y="32" type="line"/>
      <point x="442" y="32"/>
      <point x="420" y="51"/>
      <point x="420" y="154" type="curve" smooth="yes"/>
      <point x="420" y="475" type="line"/>
      <point x="385" y="476" type="line"/>
      <point x="385" y="154" type="line" smooth="yes"/>
      <point x="385" y="30"/>
      <point x="418" y="0"/>
    </contour>
    <contour>
      <point x="116" y="0" type="line"/>
      <point x="152" y="0" type="line"/>
      <point x="181" y="475" type="line"/>
      <point x="147" y="475" type="line"/>
    </contour>
    <contour>
      <point x="25" y="455" type="line"/>
      <point x="42" y="461"/>
      <point x="93" y="468"/>
      <point x="170" y="467" type="curve"/>
      <point x="176" y="468" type="line"/>
      <point x="389" y="468" type="line"/>
      <point x="396" y="469" type="line"/>
      <point x="468" y="468"/>
      <point x="515" y="477"/>
      <point x="531" y="484" type="curve"/>
      <point x="531" y="516" type="line"/>
      <point x="504" y="509"/>
      <point x="447" y="500"/>
      <point x="386" y="500" type="curve" smooth="yes"/>
      <point x="162" y="500" type="line" smooth="yes"/>
      <point x="103" y="500"/>
      <point x="49" y="493"/>
      <point x="25" y="487" type="curve"/>
    </contour>
  </outline>
</glyph>
<glyph name="hamza-ar" format="2">
  <advance width="498"/>
  <unicode hex="0621"/>
  <anchor x="244" y="-100" name="bottom"/>
  <anchor x="244" y="549" name="top"/>
  <outline>
    <contour>
      <point x="150" y="5" type="curve"/>
      <point x="176" y="28" type="line"/>
      <point x="130" y="80"/>
      <point x="110" y="126"/>
      <point x="110" y="181" type="curve" smooth="yes"/>
      <point x="110" y="284"/>
      <point x="186" y="358"/>
      <point x="290" y="358" type="curve" smooth="yes"/>
      <point x="330" y="358"/>
      <point x="363" y="349"/>
      <point x="394" y="329" type="curve"/>
      <point x="413" y="357" type="line"/>
      <point x="378" y="380"/>
      <point x="336" y="392"/>
      <point x="290" y="392" type="curve" smooth="yes"/>
      <point x="173" y="392"/>
      <point x="75" y="308"/>
      <point x="75" y="181" type="curve" smooth="yes"/>
      <point x="75" y="116"/>
      <point x="100" y="61"/>
    </contour>
    <contour>
      <point x="40" y="0" type="line"/>
      <point x="448" y="0" type="line"/>
      <point x="448" y="34" type="line"/>
      <point x="40" y="34" type="line"/>
    </contour>
  </outline>
</glyph>
<glyph name="tah-ar" format="2">
  <advance width="737"/>
  <unicode hex="0637"/>
  <anchor x="378" y="-100" name="bottom"/>
  <anchor x="378" y="573" name="top"/>
  <outline>
    <contour>
      <point x="20" y="0" type="line"/>
      <point x="657" y="0" type="line"/>
      <point x="657" y="241" type="line" smooth="yes"/>
      <point x="657" y="353"/>
      <point x="614" y="500"/>
      <point x="424" y="500" type="curve" smooth="yes"/>
      <point x="258" y="500"/>
      <point x="178" y="388"/>
      <point x="95" y="285" type="curve"/>
      <point x="122" y="264" type="line"/>
      <point x="208" y="371"/>
      <point x="280" y="466"/>
      <point x="423" y="466" type="curve" smooth="yes"/>
      <point x="555" y="466"/>
      <point x="622" y="385"/>
      <point x="622" y="241" type="curve" smooth="yes"/>
      <point x="622" y="10" type="line"/>
      <point x="647" y="34" type="line"/>
      <point x="20" y="34" type="line"/>
    </contour>
    <contour>
      <point x="87" y="34" type="line"/>
      <point x="122" y="34" type="line"/>
      <point x="122" y="730" type="line"/>
      <point x="87" y="730" type="line"/>
    </contour>
  </outline>
</glyph>
<glyph name="meem-ar" format="2">
  <advance width="588"/>
  <unicode hex="0645"/>
  <anchor x="274" y="-388" name="bottom"/>
  <anchor x="274" y="573" name="top"/>
  <outline>
    <contour>
      <point x="66" y="-332" type="curve"/>
      <point x="99" y="-326" type="line"/>
      <point x="87" y="-256"/>
      <point x="75" y="-190"/>
      <point x="75" y="-137" type="curve" smooth="yes"/>
      <point x="75" y="-14"/>
      <point x="144" y="0"/>
      <point x="186" y="0" type="curve" smooth="yes"/>
      <point x="250" y="0"/>
      <point x="403" y="0"/>
      <point x="508" y="0" type="curve"/>
      <point x="508" y="245" type="line" smooth="yes"/>
      <point x="508" y="432"/>
      <point x="428" y="500"/>
      <point x="270" y="500" type="curve" smooth="yes"/>
      <point x="196" y="500"/>
      <point x="131" y="485"/>
      <point x="104" y="473" type="curve"/>
      <point x="93" y="426"/>
      <point x="77" y="327"/>
      <point x="77" y="228" type="curve" smooth="yes"/>
      <point x="77" y="117"/>
      <point x="95" y="21"/>
      <point x="102" y="0" type="curve"/>
      <point x="135" y="11" type="line"/>
      <point x="129" y="29"/>
      <point x="112" y="120"/>
      <point x="112" y="228" type="curve" smooth="yes"/>
      <point x="112" y="324"/>
      <point x="127" y="420"/>
      <point x="138" y="465" type="curve"/>
      <point x="118" y="442" type="line"/>
      <point x="149" y="456"/>
      <point x="214" y="466"/>
      <point x="270" y="466" type="curve" smooth="yes"/>
      <point x="416" y="466"/>
      <point x="473" y="404"/>
      <point x="473" y="245" type="curve" smooth="yes"/>
      <point x="473" y="0" type="line"/>
      <point x="508" y="34" type="line"/>
      <point x="405" y="34"/>
      <point x="247" y="34"/>
      <point x="186" y="34" type="curve" smooth="yes"/>
      <point x="92" y="34"/>
      <point x="40" y="-28"/>
      <point x="40" y="-137" type="curve" smooth="yes"/>
      <point x="40" y="-178"/>
      <point x="51" y="-249"/>
    </contour>
  </outline>
</glyph>
<glyph name="heh-ar" format="2">
  <advance width="556"/>
  <unicode hex="0647"/>
  <anchor x="278" y="-100" name="bottom"/>
  <anchor x="278" y="573" name="top"/>
  <outline>
    <contour>
      <point x="40" y="0" type="line"/>
      <point x="516" y="0" type="line"/>
      <point x="516" y="240" type="line" smooth="yes"/>
      <point x="516" y="432"/>
      <point x="436" y="500"/>
      <point x="278" y="500" type="curve" smooth="yes"/>
      <point x="120" y="500"/>
      <point x="40" y="432"/>
      <point x="40" y="240" type="curve" smooth="yes"/>
    </contour>
    <contour>
      <point x="75" y="20" type="line"/>
      <point x="75" y="240" type="line" smooth="yes"/>
      <point x="75" y="404"/>
      <point x="132" y="466"/>
      <point x="278" y="466" type="curve" smooth="yes"/>
      <point x="424" y="466"/>
      <point x="481" y="404"/>
      <point x="481" y="240" type="curve" smooth="yes"/>
      <point x="481" y="20" type="line"/>
      <point x="496" y="34" type="line"/>
      <point x="60" y="34" type="line"/>
    </contour>
  </outline>
</glyph>
<glyph name="alefMaksura-ar" format="2">
  <advance width="877"/>
  <unicode hex="0649"/>
  <anchor x="424" y="-300" name="bottom"/>
  <anchor x="96" y="266" name="top"/>
  <outline>
    <contour>
      <point x="303" y="-248" type="curve" smooth="yes"/>
      <point x="586" y="-248" type="line" smooth="yes"/>
      <point x="733" y="-248"/>
      <point x="807" y="-152"/>
      <point x="807" y="-11" type="curve" smooth="yes"/>
      <point x="807" y="129"/>
      <point x="735" y="155"/>
      <point x="614" y="190" type="curve" smooth="yes"/>
      <point x="497" y="223"/>
      <point x="439" y="236"/>
      <point x="439" y="336" type="curve" smooth="yes"/>
      <point x="439" y="427"/>
      <point x="488" y="466"/>
      <point x="587" y="466" type="curve" smooth="yes"/>
      <point x="627" y="466"/>
      <point x="689" y="460"/>
      <point x="778" y="449" type="curve"/>
      <point x="782" y="479" type="line"/>
      <point x="681" y="494"/>
      <point x="632" y="500"/>
      <point x="590" y="500" type="curve" smooth="yes"/>
      <point x="468" y="500"/>
      <point x="404" y="446"/>
      <point x="404" y="336" type="curve" smooth="yes"/>
      <point x="404" y="204"/>
      <point x="497" y="188"/>
      <point x="605" y="157" type="curve" smooth="yes"/>
      <point x="739" y="118"/>
      <point x="772" y="92"/>
      <point x="772" y="-6" type="curve" smooth="yes"/>
      <point x="772" y="-146"/>
      <point x="705" y="-214"/>
      <point x="586" y="-214" type="curve" smooth="yes"/>
      <point x="303" y="-214" type="line" smooth="yes"/>
      <point x="170" y="-214"/>
      <point x="75" y="-139"/>
      <point x="75" y="-35" type="curve" smooth="yes"/>
      <point x="75" y="0"/>
      <point x="85" y="86"/>
      <point x="101" y="181" type="curve"/>
      <point x="66" y="186" type="line"/>
      <point x="52" y="100"/>
      <point x="40" y="6"/>
      <point x="40" y="-35" type="curve" smooth="yes"/>
      <point x="40" y="-162"/>
      <point x="156" y="-248"/>
    </contour>
  </outline>
</glyph>
<glyph name="dammatan-ar" format="2">
  <unicode hex="064C"/>
  <anchor x="107" y="553" name="_top"/>
  <anchor x="107" y="734" name="top"/>
  <outline>
    <contour>
      <point x="41" y="553" type="line"/>
      <point x="75" y="562" type="line"/>
      <point x="54" y="637" type="line"/>
      <point x="20" y="628" type="line"/>
    </contour>
    <contour>
      <point x="41" y="553" type="line"/>
      <point x="75" y="553" type="line"/>
      <point x="75" y="587" type="line"/>
      <point x="41" y="587" type="line"/>
    </contour>
    <component base="damma-ar" xOffset="21"/>
  </outline>
</glyph>
<glyph name="fatha-ar" format="2">
  <unicode hex="064E"/>
  <anchor x="93" y="553" name="_top"/>
  <anchor x="93" y="617" name="top"/>
  <outline>
    <contour>
      <point x="20" y="553" type="line"/>
      <point x="167" y="553" type="line"/>
      <point x="167" y="587" type="line"/>
      <point x="20" y="587" type="line"/>
    </contour>
  </outline>
</glyph>
<glyph name="damma-ar" format="2">
  <unicode hex="064F"/>
  <anchor x="96" y="553" name="_top"/>
  <anchor x="96" y="734" name="top"/>
  <outline>
    <contour>
      <point x="65" y="553" type="curve"/>
      <point x="99" y="560" type="line"/>
      <point x="88" y="612"/>
      <point x="95" y="630"/>
      <point x="116" y="630" type="curve" smooth="yes"/>
      <point x="137" y="630"/>
      <point x="144" y="612"/>
      <point x="133" y="560" type="curve"/>
      <point x="167" y="553" type="line"/>
      <point x="181" y="619"/>
      <point x="168" y="664"/>
      <point x="116" y="664" type="curve" smooth="yes"/>
      <point x="64" y="664"/>
      <point x="51" y="619"/>
    </contour>
    <contour>
      <point x="20" y="553" type="line"/>
      <point x="167" y="553" type="line"/>
      <point x="167" y="587" type="line"/>
      <point x="20" y="587" type="line"/>
    </contour>
  </outline>
</glyph>
<glyph name="shadda-ar" format="2">
  <unicode hex="0651"/>
  <anchor x="115" y="442" name="_top"/>
  <anchor x="115" y="573" name="top"/>
  <outline>
    <contour>
      <point x="154" y="442" type="curve" smooth="yes"/>
      <point x="206" y="442"/>
      <point x="219" y="487"/>
      <point x="205" y="553" type="curve"/>
      <point x="171" y="546" type="line"/>
      <point x="182" y="494"/>
      <point x="175" y="476"/>
      <point x="154" y="476" type="curve" smooth="yes"/>
      <point x="140" y="476"/>
      <point x="132" y="484"/>
      <point x="132" y="506" type="curve" smooth="yes"/>
      <point x="132" y="534" type="line"/>
      <point x="98" y="534" type="line"/>
      <point x="98" y="508" type="line" smooth="yes"/>
      <point x="98" y="468"/>
      <point x="115" y="442"/>
    </contour>
    <contour>
      <point x="76" y="442" type="curve" smooth="yes"/>
      <point x="115" y="442"/>
      <point x="132" y="468"/>
      <point x="132" y="508" type="curve" smooth="yes"/>
      <point x="132" y="534" type="line"/>
      <point x="98" y="534" type="line"/>
      <point x="98" y="506" type="line" smooth="yes"/>
      <point x="98" y="484"/>
      <point x="90" y="476"/>
      <point x="76" y="476" type="curve" smooth="yes"/>
      <point x="55" y="476"/>
      <point x="48" y="494"/>
      <point x="59" y="546" type="curve"/>
      <point x="25" y="553" type="line"/>
      <point x="11" y="487"/>
      <point x="24" y="442"/>
    </contour>
  </outline>
</glyph>
<glyph name="sukun-ar" format="2">
  <unicode hex="0652"/>
  <anchor x="103" y="453" name="_top"/>
  <anchor x="103" y="667" name="top"/>
  <outline>
    <contour>
      <point x="102" y="453" type="curve" smooth="yes"/>
      <point x="148" y="453"/>
      <point x="184" y="489"/>
      <point x="184" y="534" type="curve" smooth="yes"/>
      <point x="184" y="579"/>
      <point x="148" y="617"/>
      <point x="102" y="617" type="curve" smooth="yes"/>
      <point x="57" y="617"/>
      <point x="20" y="580"/>
      <point x="20" y="534" type="curve" smooth="yes"/>
      <point x="20" y="489"/>
      <point x="56" y="453"/>
    </contour>
    <contour>
      <point x="102" y="487" type="curve" smooth="yes"/>
      <point x="76" y="487"/>
      <point x="55" y="507"/>
      <point x="55" y="534" type="curve" smooth="yes"/>
      <point x="55" y="561"/>
      <point x="76" y="583"/>
      <point x="102" y="583" type="curve" smooth="yes"/>
      <point x="128" y="583"/>
      <point x="149" y="561"/>
      <point x="149" y="534" type="curve" smooth="yes"/>
      <point x="149" y="508"/>
      <point x="129" y="487"/>
    </contour>
  </outline>
</glyph>
<glyph name="hamzaabove-ar" format="2">
  <unicode hex="0654"/>
  <anchor x="94" y="515" name="_top"/>
  <anchor x="94" y="690" name="top"/>
  <outline>
    <contour>
      <point x="66" y="515" type="curve"/>
      <point x="92" y="538" type="line"/>
      <point x="79" y="552"/>
      <point x="74" y="563"/>
      <point x="74" y="576" type="curve" smooth="yes"/>
      <point x="74" y="600"/>
      <point x="91" y="616"/>
      <point x="115" y="616" type="curve" smooth="yes"/>
      <point x="123" y="616"/>
      <point x="130" y="614"/>
      <point x="140" y="608" type="curve"/>
      <point x="158" y="637" type="line"/>
      <point x="145" y="645"/>
      <point x="130" y="650"/>
      <point x="114" y="650" type="curve" smooth="yes"/>
      <point x="75" y="650"/>
      <point x="39" y="621"/>
      <point x="39" y="577" type="curve" smooth="yes"/>
      <point x="39" y="555"/>
      <point x="48" y="535"/>
    </contour>
    <contour>
      <point x="20" y="515" type="line"/>
      <point x="167" y="515" type="line"/>
      <point x="167" y="549" type="line"/>
      <point x="20" y="549" type="line"/>
    </contour>
  </outline>
</glyph>
<glyph name="noonghunnaabove-ar" format="2">
  <unicode hex="0658"/>
  <anchor x="111" y="386" name="_top"/>
  <anchor x="111" y="600" name="top"/>
  <outline>
    <contour>
      <point x="60" y="506" type="curve"/>
      <point x="25" y="511" type="line"/>
      <point x="23" y="489"/>
      <point x="20" y="468"/>
      <point x="20" y="458" type="curve" smooth="yes"/>
      <point x="20" y="406"/>
      <point x="75" y="386"/>
      <point x="111" y="386" type="curve" smooth="yes"/>
      <point x="147" y="386"/>
      <point x="202" y="406"/>
      <point x="202" y="458" type="curve" smooth="yes"/>
      <point x="202" y="468"/>
      <point x="199" y="489"/>
      <point x="197" y="510" type="curve"/>
      <point x="162" y="506" type="line"/>
      <point x="165" y="486"/>
      <point x="167" y="467"/>
      <point x="167" y="458" type="curve" smooth="yes"/>
      <point x="167" y="436"/>
      <point x="143" y="420"/>
      <point x="111" y="420" type="curve" smooth="yes"/>
      <point x="79" y="420"/>
      <point x="55" y="436"/>
      <point x="55" y="458" type="curve" smooth="yes"/>
      <point x="55" y="467"/>
      <point x="57" y="486"/>
    </contour>
  </outline>
</glyph>
<glyph name="zero-ar" format="2">
  <advance width="216"/>
  <unicode hex="0660"/>
  <outline>
    <contour>
      <point x="80" y="151" type="line"/>
      <point x="136" y="151" type="line"/>
      <point x="136" y="225" type="line"/>
      <point x="80" y="225" type="line"/>
    </contour>
  </outline>
</glyph>
<glyph name="three-ar" format="2">
  <advance width="659"/>
  <unicode hex="0663"/>
  <outline>
    <contour>
      <point x="434" y="343" type="curve" smooth="yes"/>
      <point x="527" y="343"/>
      <point x="569" y="398"/>
      <point x="569" y="500" type="curve" smooth="yes"/>
      <point x="569" y="660" type="line"/>
      <point x="534" y="660" type="line"/>
      <point x="534" y="500" type="line" smooth="yes"/>
      <point x="534" y="413"/>
      <point x="504" y="377"/>
      <point x="433" y="377" type="curve" smooth="yes"/>
      <point x="389" y="377"/>
      <point x="354" y="391"/>
      <point x="328" y="420" type="curve"/>
      <point x="302" y="397" type="line"/>
      <point x="334" y="362"/>
      <point x="380" y="343"/>
    </contour>
    <contour>
      <point x="120" y="0" type="line"/>
      <point x="155" y="0" type="line"/>
      <point x="155" y="660" type="line"/>
      <point x="120" y="660" type="line"/>
    </contour>
    <contour>
      <point x="227" y="343" type="curve" smooth="yes"/>
      <point x="320" y="343"/>
      <point x="362" y="398"/>
      <point x="362" y="500" type="curve" smooth="yes"/>
      <point x="362" y="660" type="line"/>
      <point x="327" y="660" type="line"/>
      <point x="327" y="500" type="line" smooth="yes"/>
      <point x="327" y="413"/>
      <point x="297" y="377"/>
      <point x="226" y="377" type="curve" smooth="yes"/>
      <point x="192" y="377"/>
      <point x="163" y="385"/>
      <point x="140" y="403" type="curve"/>
      <point x="132" y="367" type="line"/>
      <point x="159" y="351"/>
      <point x="191" y="343"/>
    </contour>
  </outline>
</glyph>
<glyph name="four-ar" format="2">
  <advance width="452"/>
  <unicode hex="0664"/>
  <outline>
    <contour>
      <point x="258" y="317" type="curve"/>
      <point x="258" y="351" type="line"/>
      <point x="150" y="351"/>
      <point x="85" y="407"/>
      <point x="85" y="496" type="curve" smooth="yes"/>
      <point x="85" y="585"/>
      <point x="152" y="642"/>
      <point x="256" y="642" type="curve" smooth="yes"/>
      <point x="287" y="642"/>
      <point x="319" y="637"/>
      <point x="364" y="627" type="curve"/>
      <point x="372" y="660" type="line"/>
      <point x="334" y="669"/>
      <point x="296" y="676"/>
      <point x="256" y="676" type="curve" smooth="yes"/>
      <point x="137" y="676"/>
      <point x="50" y="608"/>
      <point x="50" y="496" type="curve" smooth="yes"/>
      <point x="50" y="384"/>
      <point x="136" y="317"/>
    </contour>
    <contour>
      <point x="256" y="-8" type="curve" smooth="yes"/>
      <point x="296" y="-8"/>
      <point x="334" y="-1"/>
      <point x="372" y="8" type="curve"/>
      <point x="364" y="41" type="line"/>
      <point x="319" y="31"/>
      <point x="287" y="26"/>
      <point x="256" y="26" type="curve" smooth="yes"/>
      <point x="152" y="26"/>
      <point x="85" y="83"/>
      <point x="85" y="172" type="curve" smooth="yes"/>
      <point x="85" y="261"/>
      <point x="150" y="317"/>
      <point x="258" y="317" type="curve"/>
      <point x="258" y="351" type="line"/>
      <point x="136" y="351"/>
      <point x="50" y="284"/>
      <point x="50" y="172" type="curve" smooth="yes"/>
      <point x="50" y="60"/>
      <point x="137" y="-8"/>
    </contour>
    <contour>
      <point x="258" y="317" type="line"/>
      <point x="322" y="317" type="line"/>
      <point x="322" y="351" type="line"/>
      <point x="258" y="351" type="line"/>
    </contour>
  </outline>
</glyph>
<glyph name="six-ar" format="2">
  <advance width="455"/>
  <unicode hex="0666"/>
  <outline>
    <contour>
      <point x="300" y="0" type="line"/>
      <point x="335" y="0" type="line"/>
      <point x="335" y="660" type="line"/>
      <point x="30" y="660" type="line"/>
      <point x="30" y="626" type="line"/>
      <point x="335" y="626" type="line"/>
      <point x="300" y="660" type="line"/>
    </contour>
  </outline>
</glyph>
<glyph name="eight-ar" format="2">
  <advance width="581"/>
  <unicode hex="0668"/>
  <outline>
    <contour>
      <point x="256" y="660" type="line"/>
      <point x="40" y="0" type="line"/>
      <point x="77" y="0" type="line"/>
      <point x="289" y="649" type="line"/>
      <point x="256" y="626" type="line"/>
      <point x="318" y="626" type="line"/>
      <point x="285" y="649" type="line"/>
      <point x="504" y="0" type="line"/>
      <point x="541" y="0" type="line"/>
      <point x="318" y="660" type="line"/>
    </contour>
  </outline>
</glyph>
<glyph name="nine-ar" format="2">
  <advance width="506"/>
  <unicode hex="0669"/>
  <outline>
    <contour>
      <point x="360" y="0" type="line"/>
      <point x="395" y="0" type="line"/>
      <point x="395" y="660" type="line"/>
      <point x="274" y="660" type="line" smooth="yes"/>
      <point x="113" y="660"/>
      <point x="20" y="580"/>
      <point x="20" y="452" type="curve" smooth="yes"/>
      <point x="20" y="350"/>
      <point x="80" y="247"/>
      <point x="244" y="247" type="curve" smooth="yes"/>
      <point x="283" y="247"/>
      <point x="331" y="253"/>
      <point x="369" y="263" type="curve"/>
      <point x="360" y="296" type="line"/>
      <point x="325" y="287"/>
      <point x="281" y="281"/>
      <point x="244" y="281" type="curve" smooth="yes"/>
      <point x="124" y="281"/>
      <point x="55" y="344"/>
      <point x="55" y="452" type="curve" smooth="yes"/>
      <point x="55" y="562"/>
      <point x="134" y="626"/>
      <point x="274" y="626" type="curve" smooth="yes"/>
      <point x="396" y="626" type="line"/>
      <point x="360" y="660" type="line"/>
    </contour>
  </outline>
</glyph>
<glyph name="qafDotless-ar" format="2">
  <advance width="867"/>
  <unicode hex="066F"/>
  <anchor x="434" y="-360" name="bottom"/>
  <anchor x="607" y="573" name="top"/>
  <outline>
    <contour>
      <point x="303" y="-266" type="curve" smooth="yes"/>
      <point x="535" y="-266" type="line" smooth="yes"/>
      <point x="666" y="-266"/>
      <point x="787" y="-197"/>
      <point x="787" y="-58" type="curve" smooth="yes"/>
      <point x="787" y="500" type="line"/>
      <point x="607" y="500" type="line" smooth="yes"/>
      <point x="432" y="500"/>
      <point x="384" y="422"/>
      <point x="384" y="250" type="curve" smooth="yes"/>
      <point x="384" y="78"/>
      <point x="432" y="0"/>
      <point x="607" y="0" type="curve" smooth="yes"/>
      <point x="752" y="0" type="line"/>
      <point x="752" y="34" type="line"/>
      <point x="607" y="34" type="line" smooth="yes"/>
      <point x="463" y="34"/>
      <point x="419" y="84"/>
      <point x="419" y="250" type="curve" smooth="yes"/>
      <point x="419" y="416"/>
      <point x="463" y="466"/>
      <point x="607" y="466" type="curve" smooth="yes"/>
      <point x="767" y="466" type="line"/>
      <point x="752" y="480" type="line"/>
      <point x="752" y="-58" type="line" smooth="yes"/>
      <point x="752" y="-163"/>
      <point x="666" y="-232"/>
      <point x="535" y="-232" type="curve" smooth="yes"/>
      <point x="303" y="-232" type="line" smooth="yes"/>
      <point x="170" y="-232"/>
      <point x="75" y="-157"/>
      <point x="75" y="-53" type="curve" smooth="yes"/>
      <point x="75" y="-11"/>
      <point x="91" y="110"/>
      <point x="115" y="249" type="curve"/>
      <point x="80" y="255" type="line"/>
      <point x="63" y="155"/>
      <point x="40" y="3"/>
      <point x="40" y="-53" type="curve" smooth="yes"/>
      <point x="40" y="-180"/>
      <point x="156" y="-266"/>
    </contour>
  </outline>
</glyph>
<glyph name="keheh-ar" format="2">
  <advance width="751"/>
  <unicode hex="06A9"/>
  <anchor x="398" y="-100" name="bottom"/>
  <anchor x="262" y="730" name="top"/>
  <outline>
    <contour>
      <point x="337" y="0" type="curve" smooth="yes"/>
      <point x="671" y="0" type="line"/>
      <point x="671" y="213" type="line" smooth="yes"/>
      <point x="671" y="307"/>
      <point x="634" y="432"/>
      <point x="475" y="432" type="curve" smooth="yes"/>
      <point x="260" y="432" type="line"/>
      <point x="299" y="506" type="line" smooth="yes"/>
      <point x="323" y="552"/>
      <point x="346" y="591"/>
      <point x="410" y="687" type="curve"/>
      <point x="381" y="706" type="line"/>
      <point x="316" y="609"/>
      <point x="292" y="568"/>
      <point x="268" y="522" type="curve" smooth="yes"/>
      <point x="228" y="446" type="line"/>
      <point x="258" y="398" type="line"/>
      <point x="475" y="398" type="line" smooth="yes"/>
      <point x="580" y="398"/>
      <point x="636" y="332"/>
      <point x="636" y="213" type="curve" smooth="yes"/>
      <point x="636" y="34" type="line"/>
      <point x="337" y="34" type="line" smooth="yes"/>
      <point x="154" y="34"/>
      <point x="75" y="90"/>
      <point x="75" y="213" type="curve" smooth="yes"/>
      <point x="75" y="261"/>
      <point x="99" y="379"/>
      <point x="100" y="386" type="curve"/>
      <point x="66" y="392" type="line"/>
      <point x="65" y="386"/>
      <point x="40" y="265"/>
      <point x="40" y="213" type="curve" smooth="yes"/>
      <point x="40" y="67"/>
      <point x="138" y="0"/>
    </contour>
  </outline>
</glyph>
<glyph name="gaf-ar" format="2">
  <advance width="751"/>
  <unicode hex="06AF"/>
  <anchor x="398" y="-100" name="bottom"/>
  <anchor x="340" y="809" name="top"/>
  <outline>
    <contour>
      <point x="209" y="476" type="line"/>
      <point x="265" y="587"/>
      <point x="284" y="616"/>
      <point x="353" y="724" type="curve"/>
      <point x="325" y="743" type="line"/>
      <point x="265" y="658"/>
      <point x="235" y="599"/>
      <point x="188" y="509" type="curve"/>
    </contour>
    <component base="keheh-ar"/>
  </outline>
</glyph>
<glyph name="six-persian" format="2">
  <advance width="462"/>
  <unicode hex="06F6"/>
  <outline>
    <contour>
      <point x="278" y="317" type="curve"/>
      <point x="278" y="351" type="line"/>
      <point x="170" y="351"/>
      <point x="105" y="407"/>
      <point x="105" y="496" type="curve" smooth="yes"/>
      <point x="105" y="585"/>
      <point x="172" y="642"/>
      <point x="276" y="642" type="curve" smooth="yes"/>
      <point x="307" y="642"/>
      <point x="339" y="637"/>
      <point x="384" y="627" type="curve"/>
      <point x="392" y="660" type="line"/>
      <point x="354" y="669"/>
      <point x="316" y="676"/>
      <point x="276" y="676" type="curve" smooth="yes"/>
      <point x="157" y="676"/>
      <point x="70" y="608"/>
      <point x="70" y="496" type="curve" smooth="yes"/>
      <point x="70" y="384"/>
      <point x="156" y="317"/>
    </contour>
    <contour>
      <point x="70" y="0" type="curve"/>
      <point x="105" y="0" type="line"/>
      <point x="105" y="195"/>
      <point x="198" y="317"/>
      <point x="344" y="317" type="curve"/>
      <point x="344" y="351" type="line"/>
      <point x="182" y="352"/>
      <point x="70" y="219"/>
    </contour>
    <contour>
      <point x="278" y="317" type="line"/>
      <point x="344" y="317" type="line"/>
      <point x="344" y="351" type="line"/>
      <point x="278" y="351" type="line"/>
    </contour>
  </outline>
</glyph>
<glyph name="dagger" format="2">
  <advance width="477"/>
  <unicode hex="2020"/>
  <outline>
    <contour>
      <point x="222" y="-79" type="line"/>
      <point x="255" y="-79" type="line"/>
      <point x="256" y="466" type="line"/>
      <point x="439" y="466" type="line"/>
      <point x="439" y="500" type="line"/>
      <point x="256" y="500" type="line"/>
      <point x="256" y="700" type="line"/>
      <point x="221" y="700" type="line"/>
      <point x="221" y="500" type="line"/>
      <point x="38" y="500" type="line"/>
      <point x="38" y="466" type="line"/>
      <point x="221" y="466" type="line"/>
    </contour>
  </outline>
</glyph>
<glyph name="ellipsis" format="2">
  <advance width="698"/>
  <unicode hex="2026"/>
  <outline>
    <contour>
      <point x="583" y="0" type="line"/>
      <point x="623" y="0" type="line"/>
      <point x="623" y="80" type="line"/>
      <point x="583" y="80" type="line"/>
    </contour>
    <contour>
      <point x="75" y="0" type="line"/>
      <point x="115" y="0" type="line"/>
      <point x="115" y="80" type="line"/>
      <point x="75" y="80" type="line"/>
    </contour>
    <contour>
      <point x="329" y="0" type="line"/>
      <point x="369" y="0" type="line"/>
      <point x="369" y="80" type="line"/>
      <point x="329" y="80" type="line"/>
    </contour>
  </outline>
</glyph>
<glyph name="guilsinglright" format="2">
  <advance width="290"/>
  <unicode hex="203A"/>
  <outline>
    <contour>
      <point x="75" y="96" type="line"/>
      <point x="242" y="234" type="line"/>
      <point x="242" y="270" type="line"/>
      <point x="75" y="399" type="line"/>
      <point x="75" y="360" type="line"/>
      <point x="210" y="254" type="line"/>
      <point x="75" y="137" type="line"/>
    </contour>
  </outline>
</glyph>
<glyph name="fraction" format="2">
  <unicode hex="2044"/>
  <outline>
    <contour>
      <point x="-194" y="10" type="line"/>
      <point x="198" y="640" type="line"/>
      <point x="168" y="659" type="line"/>
      <point x="-224" y="28" type="line"/>
    </contour>
  </outline>
</glyph>
<glyph name="zerosuperior" format="2">
  <advance width="280"/>
  <unicode hex="2070"/>
  <outline>
    <contour>
      <point x="140" y="469" type="curve" smooth="yes"/>
      <point x="206" y="469"/>
      <point x="251" y="510"/>
      <point x="251" y="635" type="curve" smooth="yes"/>
      <point x="251" y="758"/>
      <point x="209" y="799"/>
      <point x="139" y="799" type="curve" smooth="yes"/>
      <point x="72" y="799"/>
      <point x="28" y="759"/>
      <point x="28" y="636" type="curve" smooth="yes"/>
      <point x="28" y="510"/>
      <point x="74" y="469"/>
    </contour>
    <contour>
      <point x="140" y="502" type="curve" smooth="yes"/>
      <point x="92" y="502"/>
      <point x="63" y="536"/>
      <point x="63" y="635" type="curve" smooth="yes"/>
      <point x="63" y="727"/>
      <point x="88" y="766"/>
      <point x="139" y="766" type="curve" smooth="yes"/>
      <point x="192" y="766"/>
      <point x="216" y="725"/>
      <point x="216" y="636" type="curve" smooth="yes"/>
      <point x="216" y="536"/>
      <point x="188" y="502"/>
    </contour>
  </outline>
</glyph>
<glyph name="foursuperior" format="2">
  <advance width="280"/>
  <unicode hex="2074"/>
  <outline>
    <contour>
      <point x="177" y="478" type="line"/>
      <point x="213" y="478" type="line"/>
      <point x="213" y="535" type="line"/>
      <point x="250" y="535" type="line"/>
      <point x="250" y="568" type="line"/>
      <point x="213" y="568" type="line"/>
      <point x="213" y="656" type="line"/>
      <point x="177" y="656" type="line"/>
      <point x="177" y="568" type="line"/>
      <point x="71" y="568" type="line"/>
      <point x="158" y="790" type="line"/>
      <point x="120" y="790" type="line"/>
      <point x="31" y="566" type="line"/>
      <point x="31" y="535" type="line"/>
      <point x="177" y="535" type="line"/>
    </contour>
  </outline>
</glyph>
<glyph name="sixsuperior" format="2">
  <advance width="280"/>
  <unicode hex="2076"/>
  <outline>
    <contour>
      <point x="144" y="469" type="curve" smooth="yes"/>
      <point x="210" y="469"/>
      <point x="247" y="512"/>
      <point x="247" y="579" type="curve" smooth="yes"/>
      <point x="247" y="643"/>
      <point x="216" y="680"/>
      <point x="147" y="680" type="curve" smooth="yes"/>
      <point x="120" y="680"/>
      <point x="89" y="667"/>
      <point x="78" y="662" type="curve"/>
      <point x="75" y="661"/>
      <point x="73" y="660"/>
      <point x="73" y="660" type="curve"/>
      <point x="74" y="737"/>
      <point x="101" y="766"/>
      <point x="152" y="766" type="curve" smooth="yes"/>
      <point x="180" y="766"/>
      <point x="213" y="762"/>
      <point x="230" y="759" type="curve"/>
      <point x="232" y="790" type="line"/>
      <point x="214" y="794"/>
      <point x="179" y="799"/>
      <point x="152" y="799" type="curve" smooth="yes"/>
      <point x="78" y="799"/>
      <point x="37" y="756"/>
      <point x="37" y="633" type="curve" smooth="yes"/>
      <point x="37" y="524"/>
      <point x="73" y="469"/>
    </contour>
    <contour>
      <point x="144" y="502" type="curve" smooth="yes"/>
      <point x="92" y="502"/>
      <point x="75" y="546"/>
      <point x="72" y="625" type="curve"/>
      <point x="72" y="626"/>
      <point x="109" y="648"/>
      <point x="146" y="648" type="curve" smooth="yes"/>
      <point x="193" y="648"/>
      <point x="212" y="629"/>
      <point x="212" y="579" type="curve" smooth="yes"/>
      <point x="212" y="537"/>
      <point x="195" y="502"/>
    </contour>
  </outline>
</glyph>
<glyph name="Euro" format="2">
  <advance width="560"/>
  <unicode hex="20AC"/>
  <outline>
    <contour>
      <point x="32" y="393" type="line"/>
      <point x="454" y="393" type="line"/>
      <point x="454" y="427" type="line"/>
      <point x="32" y="427" type="line"/>
    </contour>
    <contour>
      <point x="32" y="245" type="line"/>
      <point x="454" y="245" type="line"/>
      <point x="454" y="279" type="line"/>
      <point x="32" y="279" type="line"/>
    </contour>
    <contour>
      <point x="330" y="-8" type="curve" smooth="yes"/>
      <point x="394" y="-8"/>
      <point x="458" y="1"/>
      <point x="505" y="10" type="curve"/>
      <point x="502" y="42" type="line"/>
      <point x="453" y="33"/>
      <point x="390" y="24"/>
      <point x="330" y="24" type="curve" smooth="yes"/>
      <point x="157" y="24"/>
      <point x="131" y="139"/>
      <point x="131" y="328" type="curve" smooth="yes"/>
      <point x="131" y="515"/>
      <point x="153" y="637"/>
      <point x="330" y="637" type="curve" smooth="yes"/>
      <point x="387" y="637"/>
      <point x="462" y="627"/>
      <point x="502" y="618" type="curve"/>
      <point x="505" y="651" type="line"/>
      <point x="462" y="660"/>
      <point x="396" y="669"/>
      <point x="330" y="669" type="curve" smooth="yes"/>
      <point x="129" y="669"/>
      <point x="95" y="533"/>
      <point x="95" y="328" type="curve" smooth="yes"/>
      <point x="95" y="118"/>
      <point x="136" y="-8"/>
    </contour>
  </outline>
</glyph>
<glyph name="Omega" format="2">
  <advance width="560"/>
  <unicode hex="2126"/>
  <outline>
    <contour>
      <point x="41" y="-9" type="line"/>
      <point x="230" y="-9" type="line"/>
      <point x="230" y="20" type="line"/>
      <point x="178" y="120"/>
      <point x="109" y="281"/>
      <point x="109" y="360" type="curve" smooth="yes"/>
      <point x="109" y="540"/>
      <point x="129" y="636"/>
      <point x="280" y="636" type="curve" smooth="yes"/>
      <point x="429" y="636"/>
      <point x="451" y="540"/>
      <point x="451" y="360" type="curve" smooth="yes"/>
      <point x="451" y="281"/>
      <point x="382" y="120"/>
      <point x="330" y="20" type="curve"/>
      <point x="330" y="-9" type="line"/>
      <point x="519" y="-9" type="line"/>
      <point x="519" y="25" type="line"/>
      <point x="367" y="25" type="line"/>
      <point x="419" y="118"/>
      <point x="489" y="277"/>
      <point x="489" y="370" type="curve" smooth="yes"/>
      <point x="489" y="564"/>
      <point x="453" y="670"/>
      <point x="280" y="670" type="curve" smooth="yes"/>
      <point x="107" y="670"/>
      <point x="71" y="564"/>
      <point x="71" y="370" type="curve" smooth="yes"/>
      <point x="71" y="277"/>
      <point x="140" y="118"/>
      <point x="192" y="25" type="curve"/>
      <point x="41" y="25" type="line"/>
    </contour>
  </outline>
</glyph>
<glyph name="product" format="2">
  <advance width="560"/>
  <unicode hex="220F"/>
  <outline>
    <contour>
      <point x="110" y="-151" type="line"/>
      <point x="146" y="-151" type="line"/>
      <point x="146" y="716" type="line"/>
      <point x="414" y="716" type="line"/>
      <point x="414" y="-151" type="line"/>
      <point x="450" y="-151" type="line"/>
      <point x="450" y="716" type="line"/>
      <point x="530" y="716" type="line"/>
      <point x="530" y="750" type="line"/>
      <point x="30" y="750" type="line"/>
      <point x="30" y="716" type="line"/>
      <point x="110" y="716" type="line"/>
    </contour>
  </outline>
</glyph>
<glyph name="divisionslash" format="2">
  <advance width="376"/>
  <unicode hex="2215"/>
  <outline>
    <contour>
      <point x="66" y="-1" type="line"/>
      <point x="343" y="688" type="line"/>
      <point x="310" y="702" type="line"/>
      <point x="33" y="12" type="line"/>
    </contour>
  </outline>
</glyph>
<glyph name="radical" format="2">
  <advance width="560"/>
  <unicode hex="221A"/>
  <outline>
    <contour>
      <point x="224" y="-140" type="line"/>
      <point x="284" y="-140" type="line"/>
      <point x="565" y="768" type="line"/>
      <point x="528" y="768" type="line"/>
      <point x="259" y="-108" type="line"/>
      <point x="251" y="-108" type="line"/>
      <point x="99" y="450" type="line"/>
      <point x="58" y="450" type="line"/>
    </contour>
    <contour>
      <point x="6" y="416" type="line"/>
      <point x="98" y="416" type="line"/>
      <point x="98" y="450" type="line"/>
      <point x="6" y="450" type="line"/>
    </contour>
  </outline>
</glyph>
<glyph name="approxequal" format="2">
  <advance width="560"/>
  <unicode hex="2248"/>
  <outline>
    <contour>
      <point x="380" y="274" type="curve" smooth="yes"/>
      <point x="417" y="274"/>
      <point x="465" y="305"/>
      <point x="492" y="329" type="curve"/>
      <point x="481" y="360" type="line"/>
      <point x="453" y="338"/>
      <point x="405" y="308"/>
      <point x="379" y="308" type="curve" smooth="yes"/>
      <point x="337" y="308"/>
      <point x="235" y="381"/>
      <point x="181" y="381" type="curve" smooth="yes"/>
      <point x="145" y="381"/>
      <point x="95" y="350"/>
      <point x="68" y="327" type="curve"/>
      <point x="79" y="295" type="line"/>
      <point x="108" y="317"/>
      <point x="156" y="347"/>
      <point x="182" y="347" type="curve" smooth="yes"/>
      <point x="224" y="347"/>
      <point x="326" y="274"/>
    </contour>
    <contour>
      <point x="380" y="112" type="curve" smooth="yes"/>
      <point x="417" y="112"/>
      <point x="465" y="143"/>
      <point x="492" y="167" type="curve"/>
      <point x="481" y="198" type="line"/>
      <point x="453" y="176"/>
      <point x="405" y="146"/>
      <point x="379" y="146" type="curve" smooth="yes"/>
      <point x="337" y="146"/>
      <point x="235" y="219"/>
      <point x="181" y="219" type="curve" smooth="yes"/>
      <point x="145" y="219"/>
      <point x="95" y="188"/>
      <point x="68" y="165" type="curve"/>
      <point x="79" y="133" type="line"/>
      <point x="108" y="155"/>
      <point x="156" y="185"/>
      <point x="182" y="185" type="curve" smooth="yes"/>
      <point x="224" y="185"/>
      <point x="326" y="112"/>
    </contour>
  </outline>
</glyph>
<glyph name="gaf-ar.medi" format="2">
  <advance width="626"/>
  <unicode hex="FB95"/>
  <anchor x="257" y="-100" name="bottom"/>
  <anchor x="172" y="827" name="top"/>
  <outline>
    <contour>
      <point x="50" y="476" type="line"/>
      <point x="106" y="587"/>
      <point x="125" y="616"/>
      <point x="194" y="724" type="curve"/>
      <point x="166" y="743" type="line"/>
      <point x="106" y="658"/>
      <point x="76" y="599"/>
      <point x="29" y="509" type="curve"/>
    </contour>
    <component base="keheh-ar.medi"/>
  </outline>
</glyph>
<glyph name="hehgoal-ar.fina" format="2">
  <advance width="543"/>
  <unicode hex="FBA7"/>
  <anchor x="263" y="-100" name="bottom"/>
  <anchor x="263" y="573" name="top"/>
  <outline>
    <contour>
      <point x="40" y="0" type="line"/>
      <point x="75" y="0" type="line"/>
      <point x="75" y="250" type="line" smooth="yes"/>
      <point x="75" y="416"/>
      <point x="119" y="466"/>
      <point x="263" y="466" type="curve" smooth="yes"/>
      <point x="424" y="466" type="line"/>
      <point x="408" y="482" type="line"/>
      <point x="408" y="0" type="line"/>
      <point x="543" y="0" type="line"/>
      <point x="543" y="34" type="line"/>
      <point x="428" y="34" type="line"/>
      <point x="443" y="20" type="line"/>
      <point x="443" y="500" type="line"/>
      <point x="263" y="500" type="line" smooth="yes"/>
      <point x="98" y="500"/>
      <point x="40" y="434"/>
      <point x="40" y="250" type="curve" smooth="yes"/>
    </contour>
    <component base="connection_r" xOffset="493"/>
  </outline>
</glyph>
<glyph name="hehgoal-ar.medi" format="2">
  <advance width="543"/>
  <unicode hex="FBA9"/>
  <anchor x="272" y="-407" name="bottom"/>
  <anchor x="272" y="282" name="top"/>
  <outline>
    <contour>
      <point x="429" y="-310" type="curve"/>
      <point x="429" y="16" type="line"/>
      <point x="413" y="0" type="line"/>
      <point x="543" y="0" type="line"/>
      <point x="543" y="34" type="line"/>
      <point x="394" y="34" type="line"/>
      <point x="394" y="-310" type="line"/>
      <point x="425" y="-276" type="line"/>
      <point x="391" y="-280"/>
      <point x="358" y="-282"/>
      <point x="332" y="-282" type="curve" smooth="yes"/>
      <point x="198" y="-282"/>
      <point x="153" y="-218"/>
      <point x="150" y="34" type="curve"/>
      <point x="0" y="34" type="line"/>
      <point x="0" y="0" type="line"/>
      <point x="131" y="0" type="line"/>
      <point x="115" y="18" type="line"/>
      <point x="116" y="-248"/>
      <point x="183" y="-316"/>
      <point x="332" y="-316" type="curve" smooth="yes"/>
      <point x="358" y="-316"/>
      <point x="392" y="-314"/>
    </contour>
    <component base="connection_r" xOffset="493"/>
    <component base="connection_l"/>
  </outline>
</glyph>
<glyph name="hehDoachashmee-ar.fina" format="2">
  <advance width="780"/>
  <unicode hex="FBAB"/>
  <outline>
    <contour>
      <point x="680" y="0" type="line"/>
      <point x="780" y="0" type="line"/>
      <point x="780" y="34" type="line"/>
      <point x="680" y="34" type="line"/>
    </contour>
    <component base="hehDoachashmee-ar"/>
    <component base="connection_r" xOffset="730"/>
  </outline>
</glyph>
<glyph name="hehDoachashmee-ar.medi" format="2">
  <advance width="780"/>
  <unicode hex="FBAD"/>
  <outline>
    <contour>
      <point x="0" y="0" type="line"/>
      <point x="40" y="0" type="line"/>
      <point x="40" y="34" type="line"/>
      <point x="0" y="34" type="line"/>
    </contour>
    <component base="hehDoachashmee-ar.fina"/>
    <component base="connection_l"/>
  </outline>
</glyph>
<glyph name="yehbarree-ar.fina" format="2">
  <advance width="680"/>
  <unicode hex="FBAF"/>
  <anchor x="377" y="-310" name="bottom"/>
  <anchor x="109" y="160" name="top"/>
  <outline>
    <contour>
      <point x="270" y="-210" type="curve" smooth="yes"/>
      <point x="580" y="-210" type="line"/>
      <point x="580" y="-176" type="line"/>
      <point x="270" y="-176" type="line" smooth="yes"/>
      <point x="134" y="-176"/>
      <point x="75" y="-138"/>
      <point x="75" y="-49" type="curve" smooth="yes"/>
      <point x="75" y="6" type="line"/>
      <point x="65" y="0" type="line"/>
      <point x="680" y="0" type="line"/>
      <point x="680" y="34" type="line"/>
      <point x="81" y="34" type="line"/>
      <point x="40" y="4" type="line"/>
      <point x="40" y="-49" type="line" smooth="yes"/>
      <point x="40" y="-159"/>
      <point x="116" y="-210"/>
    </contour>
    <component base="connection_r" xOffset="630"/>
  </outline>
</glyph>
<glyph name="lam_alefMaksura-ar.fina" format="2">
  <advance width="993"/>
  <unicode hex="FC86"/>
  <outline>
    <contour>
      <point x="893" y="0" type="line"/>
      <point x="993" y="0" type="line"/>
      <point x="993" y="34" type="line"/>
      <point x="893" y="34" type="line"/>
    </contour>
    <component base="lam_alefMaksura-ar"/>
    <component base="connection_r" xOffset="943"/>
  </outline>
</glyph>
<glyph name="seen_alefMaksura-ar" format="2">
  <advance width="1523"/>
  <unicode hex="FCFB"/>
  <anchor x="1163" y="-100" name="bottom_1"/>
  <anchor x="424" y="-300" name="bottom_2"/>
  <anchor x="761.5" y="0" name="caret_1"/>
  <anchor x="1163" y="573" name="top_1"/>
  <anchor x="96" y="266" name="top_2"/>
  <outline>
    <contour>
      <point x="303" y="-248" type="curve" smooth="yes"/>
      <point x="586" y="-248" type="line" smooth="yes"/>
      <point x="733" y="-248"/>
      <point x="807" y="-152"/>
      <point x="807" y="-11" type="curve" smooth="yes"/>
      <point x="807" y="129"/>
      <point x="735" y="155"/>
      <point x="614" y="190" type="curve" smooth="yes"/>
      <point x="497" y="223"/>
      <point x="439" y="236"/>
      <point x="439" y="336" type="curve" smooth="yes"/>
      <point x="439" y="427"/>
      <point x="488" y="466"/>
      <point x="587" y="466" type="curve"/>
      <point x="590" y="500" type="line"/>
      <point x="468" y="500"/>
      <point x="404" y="446"/>
      <point x="404" y="336" type="curve" smooth="yes"/>
      <point x="404" y="204"/>
      <point x="497" y="188"/>
      <point x="605" y="157" type="curve" smooth="yes"/>
      <point x="739" y="118"/>
      <point x="772" y="92"/>
      <point x="772" y="-6" type="curve" smooth="yes"/>
      <point x="772" y="-146"/>
      <point x="705" y="-214"/>
      <point x="586" y="-214" type="curve" smooth="yes"/>
      <point x="303" y="-214" type="line" smooth="yes"/>
      <point x="170" y="-214"/>
      <point x="75" y="-139"/>
      <point x="75" y="-35" type="curve" smooth="yes"/>
      <point x="75" y="0"/>
      <point x="85" y="86"/>
      <point x="101" y="181" type="curve"/>
      <point x="66" y="186" type="line"/>
      <point x="52" y="100"/>
      <point x="40" y="6"/>
      <point x="40" y="-35" type="curve" smooth="yes"/>
      <point x="40" y="-162"/>
      <point x="156" y="-248"/>
    </contour>
    <contour>
      <point x="587" y="466" type="line"/>
      <point x="882" y="466" type="line"/>
      <point x="882" y="500" type="line"/>
      <point x="590" y="500" type="line"/>
    </contour>
    <contour>
      <point x="882" y="0" type="line"/>
      <point x="917" y="0" type="line"/>
      <point x="917" y="500" type="line"/>
      <point x="882" y="500" type="line"/>
    </contour>
    <contour>
      <point x="917" y="0" type="line"/>
      <point x="1053" y="0" type="line" smooth="yes"/>
      <point x="1144" y="0"/>
      <point x="1180" y="34"/>
      <point x="1180" y="178" type="curve" smooth="yes"/>
      <point x="1180" y="450" type="line"/>
      <point x="1145" y="450" type="line"/>
      <point x="1145" y="178" type="line" smooth="yes"/>
      <point x="1145" y="58"/>
      <point x="1126" y="34"/>
      <point x="1053" y="34" type="curve" smooth="yes"/>
      <point x="917" y="34" type="line"/>
    </contour>
    <contour>
      <point x="1246" y="0" type="curve" smooth="yes"/>
      <point x="1443" y="0" type="line"/>
      <point x="1443" y="278" type="line" smooth="yes"/>
      <point x="1443" y="331"/>
      <point x="1426" y="432"/>
      <point x="1411" y="500" type="curve"/>
      <point x="1377" y="493" type="line"/>
      <point x="1395" y="411"/>
      <point x="1408" y="320"/>
      <point x="1408" y="278" type="curve" smooth="yes"/>
      <point x="1408" y="0" type="line"/>
      <point x="1443" y="34" type="line"/>
      <point x="1246" y="34" type="line" smooth="yes"/>
      <point x="1211" y="34"/>
      <point x="1180" y="47"/>
      <point x="1147" y="76" type="curve"/>
      <point x="1124" y="51" type="line"/>
      <point x="1164" y="15"/>
      <point x="1205" y="0"/>
    </contour>
  </outline>
</glyph>
<glyph name="seen_reh-ar" format="2">
  <advance width="1020"/>
  <unicode hex="FD0E"/>
  <anchor x="660" y="-100" name="bottom_1"/>
  <anchor x="109" y="-350" name="bottom_2"/>
  <anchor x="257" y="0" name="caret_1"/>
  <anchor x="660" y="573" name="top_1"/>
  <anchor x="162" y="573" name="top_2"/>
  <outline>
    <contour>
      <point x="743" y="0" type="curve" smooth="yes"/>
      <point x="940" y="0" type="line"/>
      <point x="940" y="278" type="line" smooth="yes"/>
      <point x="940" y="331"/>
      <point x="923" y="432"/>
      <point x="908" y="500" type="curve"/>
      <point x="874" y="493" type="line"/>
      <point x="892" y="411"/>
      <point x="905" y="320"/>
      <point x="905" y="278" type="curve" smooth="yes"/>
      <point x="905" y="0" type="line"/>
      <point x="940" y="34" type="line"/>
      <point x="743" y="34" type="line" smooth="yes"/>
      <point x="708" y="34"/>
      <point x="677" y="47"/>
      <point x="644" y="76" type="curve"/>
      <point x="621" y="51" type="line"/>
      <point x="661" y="15"/>
      <point x="702" y="0"/>
    </contour>
    <contour>
      <point x="179" y="377" type="line"/>
      <point x="379" y="377" type="line"/>
      <point x="379" y="411" type="line"/>
      <point x="179" y="411" type="line"/>
    </contour>
    <contour>
      <point x="379" y="0" type="line"/>
      <point x="414" y="0" type="line"/>
      <point x="414" y="500" type="line"/>
      <point x="379" y="500" type="line"/>
    </contour>
    <contour>
      <point x="414" y="0" type="line"/>
      <point x="550" y="0" type="line" smooth="yes"/>
      <point x="641" y="0"/>
      <point x="677" y="34"/>
      <point x="677" y="178" type="curve" smooth="yes"/>
      <point x="677" y="450" type="line"/>
      <point x="642" y="450" type="line"/>
      <point x="642" y="178" type="line" smooth="yes"/>
      <point x="642" y="58"/>
      <point x="623" y="34"/>
      <point x="550" y="34" type="curve" smooth="yes"/>
      <point x="414" y="34" type="line"/>
    </contour>
    <component base="reh-ar"/>
  </outline>
</glyph>
<glyph name="sad_reh-ar" format="2">
  <advance width="1029"/>
  <unicode hex="FD0F"/>
  <anchor x="670" y="-100" name="bottom_1"/>
  <anchor x="109" y="-350" name="bottom_2"/>
  <anchor x="257" y="0" name="caret_1"/>
  <anchor x="670" y="573" name="top_1"/>
  <anchor x="162" y="573" name="top_2"/>
  <outline>
    <contour>
      <point x="414" y="0" type="line"/>
      <point x="949" y="0" type="line"/>
      <point x="949" y="241" type="line" smooth="yes"/>
      <point x="949" y="353"/>
      <point x="906" y="500"/>
      <point x="716" y="500" type="curve" smooth="yes"/>
      <point x="550" y="500"/>
      <point x="470" y="388"/>
      <point x="387" y="285" type="curve"/>
      <point x="414" y="264" type="line"/>
      <point x="500" y="371"/>
      <point x="572" y="466"/>
      <point x="715" y="466" type="curve" smooth="yes"/>
      <point x="847" y="466"/>
      <point x="914" y="385"/>
      <point x="914" y="241" type="curve" smooth="yes"/>
      <point x="914" y="10" type="line"/>
      <point x="939" y="34" type="line"/>
      <point x="414" y="34" type="line"/>
    </contour>
    <contour>
      <point x="179" y="377" type="line"/>
      <point x="379" y="377" type="line"/>
      <point x="379" y="411" type="line"/>
      <point x="179" y="411" type="line"/>
    </contour>
    <contour>
      <point x="379" y="0" type="line"/>
      <point x="414" y="0" type="line"/>
      <point x="414" y="500" type="line"/>
      <point x="379" y="500" type="line"/>
    </contour>
    <component base="reh-ar"/>
  </outline>
</glyph>
<glyph name="sad_alefMaksura-ar.fina" format="2">
  <advance width="1552"/>
  <unicode hex="FD21"/>
  <outline>
    <contour>
      <point x="1452" y="0" type="line"/>
      <point x="1552" y="0" type="line"/>
      <point x="1552" y="34" type="line"/>
      <point x="1452" y="34" type="line"/>
    </contour>
    <component base="sad_alefMaksura-ar"/>
    <component base="connection_r" xOffset="1502"/>
  </outline>
</glyph>
<glyph name="parenleft-ar" format="2">
  <advance width="197"/>
  <unicode hex="FD3E"/>
  <outline>
    <contour>
      <point x="124" y="-125" type="curve"/>
      <point x="159" y="-125" type="line"/>
      <point x="118" y="-22"/>
      <point x="64" y="165"/>
      <point x="64" y="301" type="curve" smooth="yes"/>
      <point x="64" y="439"/>
      <point x="118" y="638"/>
      <point x="159" y="750" type="curve"/>
      <point x="124" y="750" type="line"/>
      <point x="82" y="643"/>
      <point x="27" y="447"/>
      <point x="27" y="301" type="curve" smooth="yes"/>
      <point x="27" y="155"/>
      <point x="82" y="-28"/>
    </contour>
  </outline>
</glyph>
<glyph name="allah-ar" format="2">
  <advance width="1158"/>
  <unicode hex="FDF2"/>
  <anchor x="855" y="-100" name="bottom_1"/>
  <anchor x="641" y="-100" name="bottom_2"/>
  <anchor x="267" y="-100" name="bottom_3"/>
  <anchor x="289.5" y="0" name="caret_1"/>
  <anchor x="579" y="0" name="caret_2"/>
  <anchor x="868.5" y="0" name="caret_3"/>
  <anchor x="855" y="828" name="top_1"/>
  <anchor x="641" y="896" name="top_2"/>
  <anchor x="267" y="567" name="top_3"/>
  <outline>
    <contour>
      <point x="623" y="0" type="line"/>
      <point x="658" y="0" type="line"/>
      <point x="658" y="585" type="line"/>
      <point x="623" y="585" type="line"/>
    </contour>
    <contour>
      <point x="523" y="0" type="line"/>
      <point x="623" y="0" type="line"/>
      <point x="623" y="34" type="line"/>
      <point x="523" y="34" type="line"/>
    </contour>
    <contour>
      <point x="658" y="0" type="line"/>
      <point x="758" y="0" type="line"/>
      <point x="758" y="34" type="line"/>
      <point x="658" y="34" type="line"/>
    </contour>
    <component base="alef-ar" xOffset="923"/>
    <component base="heh-ar.fina"/>
    <component base="shaddaAlefabove-ar" xOffset="525" yOffset="190"/>
    <component base="lam-ar.init" xOffset="738"/>
  </outline>
</glyph>
<glyph name="alef-ar.fina" format="2">
  <advance width="235"/>
  <unicode hex="FE8E"/>
  <outline>
    <contour>
      <point x="135" y="0" type="line"/>
      <point x="235" y="0" type="line"/>
      <point x="235" y="34" type="line"/>
      <point x="135" y="34" type="line"/>
    </contour>
    <component base="alef-ar"/>
    <component base="connection_r" xOffset="185"/>
  </outline>
</glyph>
<glyph name="jeem-ar.fina" format="2">
  <advance width="609"/>
  <unicode hex="FE9E"/>
  <outline>
    <contour>
      <point x="331" y="-165" type="line"/>
      <point x="366" y="-165" type="line"/>
      <point x="366" y="-110" type="line"/>
      <point x="331" y="-110" type="line"/>
    </contour>
    <component base="hah-ar.fina.alt"/>
  </outline>
</glyph>
<glyph name="hah-ar.init" format="2">
  <advance width="543"/>
  <unicode hex="FEA3"/>
  <anchor x="255" y="-60" name="bottom"/>
  <anchor x="255" y="573" name="top"/>
  <outline>
    <contour>
      <point x="66" y="446" type="line"/>
      <point x="160" y="459"/>
      <point x="215" y="465"/>
      <point x="258" y="465" type="curve" smooth="yes"/>
      <point x="384" y="465"/>
      <point x="448" y="416"/>
      <point x="448" y="317" type="curve" smooth="yes"/>
      <point x="448" y="20" type="line"/>
      <point x="463" y="34" type="line"/>
      <point x="0" y="34" type="line"/>
      <point x="0" y="0" type="line"/>
      <point x="483" y="0" type="line"/>
      <point x="483" y="317" type="line" smooth="yes"/>
      <point x="483" y="437"/>
      <point x="402" y="500"/>
      <point x="255" y="500" type="curve" smooth="yes"/>
      <point x="188" y="500"/>
      <point x="114" y="487"/>
      <point x="62" y="475" type="curve"/>
    </contour>
    <component base="connection_l"/>
  </outline>
</glyph>
<glyph name="hah-ar.medi" format="2">
  <advance width="583"/>
  <unicode hex="FEA4"/>
  <outline>
    <contour>
      <point x="483" y="0" type="line"/>
      <point x="583" y="0" type="line"/>
      <point x="583" y="34" type="line"/>
      <point x="483" y="34" type="line"/>
    </contour>
    <component base="hah-ar.init"/>
    <component base="connection_r" xOffset="533"/>
  </outline>
</glyph>
<glyph name="reh-ar.fina" format="2">
  <advance width="279"/>
  <unicode hex="FEAE"/>
  <outline>
    <contour>
      <point x="179" y="0" type="line"/>
      <point x="279" y="0" type="line"/>
      <point x="279" y="34" type="line"/>
      <point x="179" y="34" type="line"/>
    </contour>
    <component base="reh-ar"/>
    <component base="connection_r" xOffset="229"/>
  </outline>
</glyph>
<glyph name="seen-ar.fina" format="2">
  <advance width="1181"/>
  <unicode hex="FEB2"/>
  <outline>
    <contour>
      <point x="1081" y="0" type="line"/>
      <point x="1181" y="0" type="line"/>
      <point x="1181" y="34" type="line"/>
      <point x="1081" y="34" type="line"/>
    </contour>
    <component base="seen-ar"/>
    <component base="connection_r" xOffset="1131"/>
  </outline>
</glyph>
<glyph name="seen-ar.init" format="2">
  <advance width="761"/>
  <unicode hex="FEB3"/>
  <anchor x="400" y="-100" name="bottom"/>
  <anchor x="400" y="573" name="top"/>
  <outline>
    <contour>
      <point x="484" y="0" type="curve" smooth="yes"/>
      <point x="681" y="0" type="line"/>
      <point x="681" y="278" type="line" smooth="yes"/>
      <point x="681" y="331"/>
      <point x="664" y="432"/>
      <point x="649" y="500" type="curve"/>
      <point x="615" y="493" type="line"/>
      <point x="633" y="411"/>
      <point x="646" y="320"/>
      <point x="646" y="278" type="curve" smooth="yes"/>
      <point x="646" y="0" type="line"/>
      <point x="681" y="34" type="line"/>
      <point x="484" y="34" type="line" smooth="yes"/>
      <point x="449" y="34"/>
      <point x="418" y="47"/>
      <point x="385" y="76" type="curve"/>
      <point x="362" y="51" type="line"/>
      <point x="402" y="15"/>
      <point x="443" y="0"/>
    </contour>
    <contour>
      <point x="0" y="0" type="line"/>
      <point x="155" y="0" type="line"/>
      <point x="155" y="450" type="line"/>
      <point x="120" y="450" type="line"/>
      <point x="120" y="20" type="line"/>
      <point x="135" y="34" type="line"/>
      <point x="0" y="34" type="line"/>
    </contour>
    <contour>
      <point x="155" y="0" type="line"/>
      <point x="291" y="0" type="line" smooth="yes"/>
      <point x="382" y="0"/>
      <point x="418" y="34"/>
      <point x="418" y="178" type="curve" smooth="yes"/>
      <point x="418" y="450" type="line"/>
      <point x="383" y="450" type="line"/>
      <point x="383" y="178" type="line" smooth="yes"/>
      <point x="383" y="58"/>
      <point x="364" y="34"/>
      <point x="291" y="34" type="curve" smooth="yes"/>
      <point x="155" y="34" type="line"/>
    </contour>
    <component base="connection_l"/>
  </outline>
</glyph>
<glyph name="seen-ar.medi" format="2">
  <advance width="781"/>
  <unicode hex="FEB4"/>
  <outline>
    <contour>
      <point x="681" y="0" type="line"/>
      <point x="781" y="0" type="line"/>
      <point x="781" y="34" type="line"/>
      <point x="681" y="34" type="line"/>
    </contour>
    <component base="seen-ar.init"/>
    <component base="connection_r" xOffset="731"/>
  </outline>
</glyph>
<glyph name="sad-ar.fina" format="2">
  <advance width="1190"/>
  <unicode hex="FEBA"/>
  <outline>
    <contour>
      <point x="1090" y="0" type="line"/>
      <point x="1190" y="0" type="line"/>
      <point x="1190" y="34" type="line"/>
      <point x="1090" y="34" type="line"/>
    </contour>
    <component base="sad-ar"/>
    <component base="connection_r" xOffset="1140"/>
  </outline>
</glyph>
<glyph name="sad-ar.init" format="2">
  <advance width="800"/>
  <unicode hex="FEBB"/>
  <anchor x="441" y="-100" name="bottom"/>
  <anchor x="441" y="573" name="top"/>
  <outline>
    <contour>
      <point x="0" y="0" type="line"/>
      <point x="720" y="0" type="line"/>
      <point x="720" y="241" type="line" smooth="yes"/>
      <point x="720" y="353"/>
      <point x="677" y="500"/>
      <point x="487" y="500" type="curve" smooth="yes"/>
      <point x="321" y="500"/>
      <point x="241" y="388"/>
      <point x="158" y="285" type="curve"/>
      <point x="185" y="264" type="line"/>
      <point x="271" y="371"/>
      <point x="343" y="466"/>
      <point x="486" y="466" type="curve" smooth="yes"/>
      <point x="618" y="466"/>
      <point x="685" y="385"/>
      <point x="685" y="241" type="curve" smooth="yes"/>
      <point x="685" y="10" type="line"/>
      <point x="710" y="34" type="line"/>
      <point x="0" y="34" type="line"/>
    </contour>
    <contour>
      <point x="150" y="34" type="line"/>
      <point x="185" y="34" type="line"/>
      <point x="185" y="500" type="line"/>
      <point x="150" y="500" type="line"/>
    </contour>
    <component base="connection_l"/>
  </outline>
</glyph>
<glyph name="tah-ar.fina" format="2">
  <advance width="757"/>
  <unicode hex="FEC2"/>
  <outline>
    <contour>
      <point x="657" y="0" type="line"/>
      <point x="757" y="0" type="line"/>
      <point x="757" y="34" type="line"/>
      <point x="657" y="34" type="line"/>
    </contour>
    <component base="tah-ar"/>
    <component base="connection_r" xOffset="707"/>
  </outline>
</glyph>
<glyph name="ain-ar.fina" format="2">
  <advance width="604"/>
  <unicode hex="FECA"/>
  <anchor x="301" y="-400" name="bottom"/>
  <anchor x="301" y="573" name="top"/>
  <outline>
    <contour>
      <point x="252" y="-308" type="curve" smooth="yes"/>
      <point x="305" y="-308"/>
      <point x="361" y="-299"/>
      <point x="401" y="-290" type="curve"/>
      <point x="395" y="-261" type="line"/>
      <point x="328" y="-270"/>
      <point x="285" y="-274"/>
      <point x="251" y="-274" type="curve" smooth="yes"/>
      <point x="134" y="-274"/>
      <point x="75" y="-228"/>
      <point x="75" y="-136" type="curve" smooth="yes"/>
      <point x="75" y="-53"/>
      <point x="122" y="-14"/>
      <point x="172" y="10" type="curve" smooth="yes"/>
      <point x="183" y="15"/>
      <point x="196" y="21"/>
      <point x="211" y="27" type="curve" smooth="yes"/>
      <point x="236" y="37"/>
      <point x="265" y="50"/>
      <point x="295" y="65" type="curve" smooth="yes"/>
      <point x="410" y="120"/>
      <point x="548" y="211"/>
      <point x="548" y="372" type="curve" smooth="yes"/>
      <point x="548" y="433" type="line"/>
      <point x="462" y="478"/>
      <point x="382" y="500"/>
      <point x="301" y="500" type="curve" smooth="yes"/>
      <point x="220" y="500"/>
      <point x="140" y="478"/>
      <point x="54" y="433" type="curve"/>
      <point x="54" y="372" type="line" smooth="yes"/>
      <point x="54" y="235"/>
      <point x="238" y="0"/>
      <point x="499" y="0" type="curve" smooth="yes"/>
      <point x="604" y="0" type="line"/>
      <point x="604" y="34" type="line"/>
      <point x="499" y="34" type="line" smooth="yes"/>
      <point x="255" y="34"/>
      <point x="89" y="246"/>
      <point x="89" y="372" type="curve" smooth="yes"/>
      <point x="89" y="433" type="line"/>
      <point x="70" y="403" type="line"/>
      <point x="153" y="446"/>
      <point x="226" y="466"/>
      <point x="301" y="466" type="curve" smooth="yes"/>
      <point x="376" y="466"/>
      <point x="449" y="446"/>
      <point x="532" y="403" type="curve"/>
      <point x="513" y="433" type="line"/>
      <point x="513" y="372" type="line" smooth="yes"/>
      <point x="513" y="185"/>
      <point x="295" y="99"/>
      <point x="171" y="47" type="curve"/>
      <point x="158" y="41" type="line" smooth="yes"/>
      <point x="81" y="8"/>
      <point x="40" y="-54"/>
      <point x="40" y="-137" type="curve" smooth="yes"/>
      <point x="40" y="-249"/>
      <point x="117" y="-308"/>
    </contour>
    <component base="connection_r" xOffset="554"/>
  </outline>
</glyph>
<glyph name="ain-ar.init" format="2">
  <advance width="596"/>
  <unicode hex="FECB"/>
  <anchor x="330" y="-100" name="bottom"/>
  <anchor x="330" y="573" name="top"/>
  <outline>
    <contour>
      <point x="217" y="3" type="curve"/>
      <point x="240" y="29" type="line"/>
      <point x="175" y="84"/>
      <point x="141" y="155"/>
      <point x="141" y="235" type="curve" smooth="yes"/>
      <point x="141" y="368"/>
      <point x="237" y="466"/>
      <point x="367" y="466" type="curve" smooth="yes"/>
      <point x="404" y="466"/>
      <point x="446" y="458"/>
      <point x="482" y="445" type="curve"/>
      <point x="494" y="477" type="line"/>
      <point x="453" y="492"/>
      <point x="406" y="500"/>
      <point x="367" y="500" type="curve" smooth="yes"/>
      <point x="219" y="500"/>
      <point x="106" y="388"/>
      <point x="106" y="235" type="curve" smooth="yes"/>
      <point x="106" y="145"/>
      <point x="145" y="64"/>
    </contour>
    <contour>
      <point x="0" y="0" type="line"/>
      <point x="506" y="0" type="line"/>
      <point x="506" y="34" type="line"/>
      <point x="0" y="34" type="line"/>
    </contour>
    <component base="connection_l"/>
  </outline>
</glyph>
<glyph name="ain-ar.medi" format="2">
  <advance width="613"/>
  <unicode hex="FECC"/>
  <anchor x="310" y="-100" name="bottom"/>
  <anchor x="310" y="573" name="top"/>
  <outline>
    <contour>
      <point x="0" y="0" type="line"/>
      <point x="112" y="0" type="line" smooth="yes"/>
      <point x="373" y="0"/>
      <point x="557" y="235"/>
      <point x="557" y="372" type="curve" smooth="yes"/>
      <point x="557" y="433" type="line"/>
      <point x="471" y="478"/>
      <point x="391" y="500"/>
      <point x="310" y="500" type="curve" smooth="yes"/>
      <point x="229" y="500"/>
      <point x="149" y="478"/>
      <point x="63" y="433" type="curve"/>
      <point x="63" y="372" type="line" smooth="yes"/>
      <point x="63" y="235"/>
      <point x="247" y="0"/>
      <point x="508" y="0" type="curve" smooth="yes"/>
      <point x="613" y="0" type="line"/>
      <point x="613" y="34" type="line"/>
      <point x="508" y="34" type="line" smooth="yes"/>
      <point x="264" y="34"/>
      <point x="98" y="246"/>
      <point x="98" y="372" type="curve" smooth="yes"/>
      <point x="98" y="433" type="line"/>
      <point x="79" y="403" type="line"/>
      <point x="162" y="446"/>
      <point x="235" y="466"/>
      <point x="310" y="466" type="curve" smooth="yes"/>
      <point x="385" y="466"/>
      <point x="458" y="446"/>
      <point x="541" y="403" type="curve"/>
      <point x="522" y="433" type="line"/>
      <point x="522" y="372" type="line" smooth="yes"/>
      <point x="522" y="246"/>
      <point x="356" y="34"/>
      <point x="112" y="34" type="curve" smooth="yes"/>
      <point x="0" y="34" type="line"/>
    </contour>
    <component base="connection_l"/>
    <component base="connection_r" xOffset="563"/>
  </outline>
</glyph>
<glyph name="kaf-ar.init" format="2">
  <advance width="606"/>
  <unicode hex="FEDB"/>
  <anchor x="253" y="-100" name="bottom"/>
  <anchor x="204" y="763" name="top"/>
  <outline>
    <contour>
      <point x="0" y="0" type="line"/>
      <point x="526" y="0" type="line"/>
      <point x="526" y="213" type="line" smooth="yes"/>
      <point x="526" y="307"/>
      <point x="489" y="432"/>
      <point x="330" y="432" type="curve" smooth="yes"/>
      <point x="99" y="432" type="line"/>
      <point x="108" y="418" type="line"/>
      <point x="154" y="506" type="line" smooth="yes"/>
      <point x="178" y="552"/>
      <point x="201" y="591"/>
      <point x="265" y="687" type="curve"/>
      <point x="236" y="706" type="line"/>
      <point x="171" y="609"/>
      <point x="147" y="568"/>
      <point x="123" y="522" type="curve" smooth="yes"/>
      <point x="83" y="446" type="line"/>
      <point x="113" y="398" type="line"/>
      <point x="330" y="398" type="line" smooth="yes"/>
      <point x="435" y="398"/>
      <point x="491" y="332"/>
      <point x="491" y="213" type="curve" smooth="yes"/>
      <point x="491" y="20" type="line"/>
      <point x="506" y="34" type="line"/>
      <point x="0" y="34" type="line"/>
    </contour>
    <component base="connection_l"/>
  </outline>
</glyph>
<glyph name="lam-ar.medi" format="2">
  <advance width="235"/>
  <unicode hex="FEE0"/>
  <outline>
    <contour>
      <point x="135" y="0" type="line"/>
      <point x="235" y="0" type="line"/>
      <point x="235" y="34" type="line"/>
      <point x="135" y="34" type="line"/>
    </contour>
    <component base="lam-ar.init"/>
    <component base="connection_r" xOffset="185"/>
  </outline>
</glyph>
<glyph name="meem-ar.init" format="2">
  <advance width="616"/>
  <unicode hex="FEE3"/>
  <anchor x="302" y="-100" name="bottom"/>
  <anchor x="302" y="573" name="top"/>
  <outline>
    <contour>
      <point x="0" y="0" type="line"/>
      <point x="536" y="0" type="line"/>
      <point x="536" y="245" type="line" smooth="yes"/>
      <point x="536" y="432"/>
      <point x="456" y="500"/>
      <point x="298" y="500" type="curve" smooth="yes"/>
      <point x="224" y="500"/>
      <point x="159" y="485"/>
      <point x="132" y="473" type="curve"/>
      <point x="121" y="426"/>
      <point x="105" y="327"/>
      <point x="105" y="228" type="curve" smooth="yes"/>
      <point x="105" y="117"/>
      <point x="123" y="21"/>
      <point x="130" y="0" type="curve"/>
      <point x="163" y="11" type="line"/>
      <point x="157" y="29"/>
      <point x="140" y="120"/>
      <point x="140" y="228" type="curve" smooth="yes"/>
      <point x="140" y="324"/>
      <point x="155" y="420"/>
      <point x="166" y="465" type="curve"/>
      <point x="146" y="442" type="line"/>
      <point x="177" y="456"/>
      <point x="242" y="466"/>
      <point x="298" y="466" type="curve" smooth="yes"/>
      <point x="444" y="466"/>
      <point x="501" y="404"/>
      <point x="501" y="245" type="curve" smooth="yes"/>
      <point x="501" y="0" type="line"/>
      <point x="536" y="34" type="line"/>
      <point x="0" y="34" type="line"/>
    </contour>
    <component base="connection_l"/>
  </outline>
</glyph>
<glyph name="heh-ar.fina" format="2">
  <advance width="543"/>
  <unicode hex="FEEA"/>
  <anchor x="263" y="-100" name="bottom"/>
  <anchor x="263" y="573" name="top"/>
  <outline>
    <contour>
      <point x="263" y="0" type="curve" smooth="yes"/>
      <point x="543" y="0" type="line"/>
      <point x="543" y="34" type="line"/>
      <point x="263" y="34" type="line" smooth="yes"/>
      <point x="119" y="34"/>
      <point x="75" y="84"/>
      <point x="75" y="250" type="curve" smooth="yes"/>
      <point x="75" y="416"/>
      <point x="119" y="466"/>
      <point x="263" y="466" type="curve" smooth="yes"/>
      <point x="423" y="466" type="line"/>
      <point x="408" y="480" type="line"/>
      <point x="408" y="0" type="line"/>
      <point x="443" y="0" type="line"/>
      <point x="443" y="500" type="line"/>
      <point x="263" y="500" type="line" smooth="yes"/>
      <point x="88" y="500"/>
      <point x="40" y="422"/>
      <point x="40" y="250" type="curve" smooth="yes"/>
      <point x="40" y="78"/>
      <point x="88" y="0"/>
    </contour>
    <component base="connection_r" xOffset="493"/>
  </outline>
</glyph>
<glyph name="heh-ar.init" format="2">
  <advance width="780"/>
  <unicode hex="FEEB"/>
  <anchor x="374" y="-100" name="bottom"/>
  <anchor x="374" y="630" name="top"/>
  <outline>
    <contour>
      <point x="0" y="0" type="line"/>
      <point x="700" y="0" type="line"/>
      <point x="700" y="189" type="line" smooth="yes"/>
      <point x="700" y="445"/>
      <point x="540" y="523"/>
      <point x="374" y="523" type="curve" smooth="yes"/>
      <point x="275" y="523"/>
      <point x="169" y="495"/>
      <point x="143" y="488" type="curve"/>
      <point x="148" y="462" type="line"/>
      <point x="215" y="474"/>
      <point x="302" y="489"/>
      <point x="374" y="489" type="curve" smooth="yes"/>
      <point x="564" y="489"/>
      <point x="665" y="386"/>
      <point x="665" y="189" type="curve" smooth="yes"/>
      <point x="665" y="20" type="line"/>
      <point x="680" y="34" type="line"/>
      <point x="0" y="34" type="line"/>
    </contour>
    <contour>
      <point x="130" y="34" type="line"/>
      <point x="165" y="34" type="line"/>
      <point x="165" y="158" type="line" smooth="yes"/>
      <point x="165" y="228"/>
      <point x="223" y="283"/>
      <point x="296" y="283" type="curve" smooth="yes"/>
      <point x="369" y="283"/>
      <point x="426" y="228"/>
      <point x="426" y="158" type="curve" smooth="yes"/>
      <point x="426" y="34" type="line"/>
      <point x="461" y="34" type="line"/>
      <point x="461" y="158" type="line" smooth="yes"/>
      <point x="461" y="247"/>
      <point x="388" y="317"/>
      <point x="296" y="317" type="curve" smooth="yes"/>
      <point x="204" y="317"/>
      <point x="130" y="247"/>
      <point x="130" y="158" type="curve" smooth="yes"/>
    </contour>
    <component base="connection_l"/>
  </outline>
</glyph>
<glyph name="lam_alef-ar" format="2">
  <advance width="603"/>
  <unicode hex="FEFB"/>
  <anchor x="495" y="-60" name="bottom_1"/>
  <anchor x="228" y="-60" name="bottom_2"/>
  <anchor x="296.5" y="0" name="caret_1"/>
  <anchor x="495" y="782" name="top_1"/>
  <anchor x="228" y="634" name="top_2"/>
  <outline>
    <contour>
      <point x="40" y="0" type="line"/>
      <point x="513" y="0" type="line"/>
      <point x="513" y="730" type="line"/>
      <point x="478" y="730" type="line"/>
      <point x="478" y="0" type="line"/>
      <point x="513" y="34" type="line"/>
      <point x="40" y="34" type="line"/>
    </contour>
    <contour>
      <point x="210" y="34" type="line"/>
      <point x="245" y="34" type="line"/>
      <point x="245" y="583" type="line"/>
      <point x="210" y="583" type="line"/>
    </contour>
  </outline>
</glyph>
<glyph name="lam_alef-ar.fina" format="2">
  <advance width="613"/>
  <unicode hex="FEFC"/>
  <outline>
    <contour>
      <point x="513" y="0" type="line"/>
      <point x="613" y="0" type="line"/>
      <point x="613" y="34" type="line"/>
      <point x="513" y="34" type="line"/>
    </contour>
    <component base="lam_alef-ar"/>
    <component base="connection_r" xOffset="563"/>
  </outline>
</glyph>
<glyph name="alefMaksura_reh-ar.fina" format="2">
  <advance width="514"/>
  <anchor x="397" y="-60" name="bottom_1"/>
  <anchor x="109" y="-350" name="bottom_2"/>
  <anchor x="257" y="0" name="caret_1"/>
  <anchor x="397" y="573" name="top_1"/>
  <anchor x="162" y="573" name="top_2"/>
  <outline>
    <contour>
      <point x="379" y="0" type="line"/>
      <point x="514" y="0" type="line"/>
      <point x="514" y="34" type="line"/>
      <point x="399" y="34" type="line"/>
      <point x="414" y="20" type="line"/>
      <point x="414" y="500" type="line"/>
      <point x="379" y="500" type="line"/>
    </contour>
    <contour>
      <point x="179" y="377" type="line"/>
      <point x="379" y="377" type="line"/>
      <point x="379" y="411" type="line"/>
      <point x="179" y="411" type="line"/>
    </contour>
    <component base="reh-ar"/>
    <component base="connection_r" xOffset="464"/>
  </outline>
</glyph>
<glyph name="behDotless-ar.medi" format="2">
  <advance width="235"/>
  <outline>
    <contour>
      <point x="135" y="0" type="line"/>
      <point x="235" y="0" type="line"/>
      <point x="235" y="34" type="line"/>
      <point x="135" y="34" type="line"/>
    </contour>
    <component base="behDotless-ar.init"/>
    <component base="connection_r" xOffset="185"/>
  </outline>
</glyph>
<glyph name="braceright.cap" format="2">
  <advance width="345"/>
  <outline>
    <contour>
      <point x="43" y="781" type="curve"/>
      <point x="41" y="749" type="line"/>
      <point x="155" y="744"/>
      <point x="184" y="692"/>
      <point x="184" y="604" type="curve" smooth="yes"/>
      <point x="184" y="580"/>
      <point x="182" y="556"/>
      <point x="180" y="532" type="curve" smooth="yes"/>
      <point x="179" y="517"/>
      <point x="178" y="503"/>
      <point x="177" y="488" type="curve"/>
      <point x="177" y="404"/>
      <point x="204" y="370"/>
      <point x="277" y="346" type="curve"/>
      <point x="204" y="322"/>
      <point x="177" y="290"/>
      <point x="177" y="202" type="curve" smooth="yes"/>
      <point x="177" y="188"/>
      <point x="179" y="167"/>
      <point x="180" y="146" type="curve" smooth="yes"/>
      <point x="182" y="123"/>
      <point x="184" y="100"/>
      <point x="184" y="83" type="curve" smooth="yes"/>
      <point x="184" y="-7"/>
      <point x="155" y="-57"/>
      <point x="41" y="-62" type="curve"/>
      <point x="43" y="-94" type="line"/>
      <point x="171" y="-89"/>
      <point x="219" y="-36"/>
      <point x="219" y="83" type="curve" smooth="yes"/>
      <point x="219" y="103"/>
      <point x="217" y="130"/>
      <point x="215" y="155" type="curve" smooth="yes"/>
      <point x="214" y="177"/>
      <point x="212" y="198"/>
      <point x="212" y="211" type="curve" smooth="yes"/>
      <point x="212" y="276"/>
      <point x="239" y="312"/>
      <point x="316" y="331" type="curve"/>
      <point x="316" y="363" type="line"/>
      <point x="240" y="385"/>
      <point x="212" y="417"/>
      <point x="212" y="481" type="curve" smooth="yes"/>
      <point x="212" y="492"/>
      <point x="213" y="510"/>
      <point x="215" y="530" type="curve" smooth="yes"/>
      <point x="217" y="555"/>
      <point x="219" y="582"/>
      <point x="219" y="604" type="curve" smooth="yes"/>
      <point x="219" y="723"/>
      <point x="171" y="776"/>
    </contour>
  </outline>
</glyph>
<glyph name="breve.cap" format="2">
  <advance width="215"/>
  <outline>
    <contour>
      <point x="123" y="805" type="curve" smooth="yes"/>
      <point x="197" y="805"/>
      <point x="261" y="850"/>
      <point x="261" y="924" type="curve"/>
      <point x="226" y="924" type="line"/>
      <point x="226" y="869"/>
      <point x="178" y="837"/>
      <point x="123" y="837" type="curve" smooth="yes"/>
      <point x="68" y="837"/>
      <point x="20" y="869"/>
      <point x="20" y="924" type="curve"/>
      <point x="-15" y="924" type="line"/>
      <point x="-15" y="850"/>
      <point x="49" y="805"/>
    </contour>
  </outline>
</glyph>
<glyph name="caron.cap" format="2">
  <advance width="215"/>
  <outline>
    <contour>
      <point x="107" y="809" type="line"/>
      <point x="137" y="809" type="line"/>
      <point x="271" y="934" type="line"/>
      <point x="225" y="934" type="line"/>
      <point x="122" y="838" type="line"/>
      <point x="18" y="934" type="line"/>
      <point x="-27" y="934" type="line"/>
    </contour>
  </outline>
</glyph>
<glyph name="circumflex.cap" format="2">
  <advance width="446"/>
  <outline>
    <contour>
      <point x="74" y="809" type="line"/>
      <point x="120" y="809" type="line"/>
      <point x="223" y="905" type="line"/>
      <point x="327" y="809" type="line"/>
      <point x="372" y="809" type="line"/>
      <point x="238" y="934" type="line"/>
      <point x="208" y="934" type="line"/>
    </contour>
  </outline>
</glyph>
<glyph name="connection_r" format="2">
  <advance width="50"/>
  <outline>
    <contour>
      <point x="50" y="0" type="line"/>
      <point x="68" y="0"/>
      <point x="70" y="7"/>
      <point x="70" y="17" type="curve" smooth="yes"/>
      <point x="70" y="26"/>
      <point x="68" y="34"/>
      <point x="50" y="34" type="curve"/>
    </contour>
  </outline>
</glyph>
<glyph name="dollar.rvrn" format="2">
  <advance width="560"/>
  <outline>
    <contour>
      <point x="272" y="-85" type="line"/>
      <point x="307" y="-85" type="line"/>
      <point x="307" y="1" type="line"/>
      <point x="272" y="1" type="line"/>
    </contour>
    <contour>
      <point x="272" y="655" type="line"/>
      <point x="307" y="655" type="line"/>
      <point x="307" y="751" type="line"/>
      <point x="272" y="751" type="line"/>
    </contour>
    <contour>
      <point x="285" y="-7" type="curve" smooth="yes"/>
      <point x="415" y="-7"/>
      <point x="484" y="44"/>
      <point x="484" y="191" type="curve" smooth="yes"/>
      <point x="484" y="310"/>
      <point x="417" y="338"/>
      <point x="292" y="358" type="curve" smooth="yes"/>
      <point x="174" y="376"/>
      <point x="115" y="391"/>
      <point x="115" y="505" type="curve" smooth="yes"/>
      <point x="115" y="599"/>
      <point x="176" y="637"/>
      <point x="283" y="637" type="curve" smooth="yes"/>
      <point x="322" y="637"/>
      <point x="411" y="628"/>
      <point x="466" y="621" type="curve"/>
      <point x="470" y="654" type="line"/>
      <point x="421" y="661"/>
      <point x="336" y="669"/>
      <point x="283" y="669" type="curve" smooth="yes"/>
      <point x="158" y="669"/>
      <point x="80" y="625"/>
      <point x="80" y="503" type="curve" smooth="yes"/>
      <point x="80" y="365"/>
      <point x="155" y="343"/>
      <point x="284" y="324" type="curve" smooth="yes"/>
      <point x="400" y="306"/>
      <point x="449" y="284"/>
      <point x="449" y="188" type="curve" smooth="yes"/>
      <point x="449" y="71"/>
      <point x="391" y="25"/>
      <point x="284" y="25" type="curve" smooth="yes"/>
      <point x="235" y="25"/>
      <point x="143" y="35"/>
      <point x="87" y="41" type="curve"/>
      <point x="83" y="8" type="line"/>
      <point x="140" y="2"/>
      <point x="233" y="-7"/>
    </contour>
  </outline>
</glyph>
<glyph name="dotaccent.cap" format="2">
  <advance width="215"/>
  <outline>
    <contour>
      <point x="90" y="823" type="line"/>
      <point x="125" y="823" type="line"/>
      <point x="125" y="878" type="line"/>
      <point x="90" y="878" type="line"/>
    </contour>
  </outline>
</glyph>
<glyph name="eight.pnum" format="2">
  <advance width="512"/>
  <outline>
    <contour>
      <point x="254" y="-10" type="curve" smooth="yes"/>
      <point x="374" y="-10"/>
      <point x="450" y="19"/>
      <point x="450" y="133" type="curve" smooth="yes"/>
      <point x="450" y="216"/>
      <point x="401" y="244"/>
      <point x="337" y="263" type="curve"/>
      <point x="406" y="283"/>
      <point x="443" y="315"/>
      <point x="443" y="383" type="curve" smooth="yes"/>
      <point x="443" y="473"/>
      <point x="370" y="509"/>
      <point x="254" y="509" type="curve" smooth="yes"/>
      <point x="136" y="509"/>
      <point x="70" y="474"/>
      <point x="70" y="384" type="curve" smooth="yes"/>
      <point x="70" y="315"/>
      <point x="108" y="283"/>
      <point x="167" y="263" type="curve"/>
      <point x="107" y="238"/>
      <point x="62" y="214"/>
      <point x="62" y="126" type="curve" smooth="yes"/>
      <point x="62" y="23"/>
      <point x="138" y="-10"/>
    </contour>
    <contour>
      <point x="254" y="22" type="curve" smooth="yes"/>
      <point x="162" y="22"/>
      <point x="97" y="41"/>
      <point x="97" y="126" type="curve" smooth="yes"/>
      <point x="97" y="203"/>
      <point x="135" y="230"/>
      <point x="201" y="246" type="curve"/>
      <point x="300" y="246" type="line"/>
      <point x="365" y="230"/>
      <point x="415" y="215"/>
      <point x="415" y="133" type="curve" smooth="yes"/>
      <point x="415" y="40"/>
      <point x="352" y="22"/>
    </contour>
    <contour>
      <point x="201" y="278" type="line"/>
      <point x="135" y="297"/>
      <point x="105" y="321"/>
      <point x="105" y="383" type="curve" smooth="yes"/>
      <point x="105" y="458"/>
      <point x="159" y="477"/>
      <point x="254" y="477" type="curve" smooth="yes"/>
      <point x="349" y="477"/>
      <point x="408" y="457"/>
      <point x="408" y="382" type="curve" smooth="yes"/>
      <point x="408" y="320"/>
      <point x="371" y="295"/>
      <point x="300" y="278" type="curve"/>
    </contour>
  </outline>
</glyph>
<glyph name="fehDotless-ar.init" format="2">
  <advance width="591"/>
  <anchor x="331" y="-100" name="bottom"/>
  <anchor x="331" y="573" name="top"/>
  <outline>
    <contour>
      <point x="0" y="0" type="line"/>
      <point x="511" y="0" type="line"/>
      <point x="511" y="500" type="line"/>
      <point x="331" y="500" type="line" smooth="yes"/>
      <point x="156" y="500"/>
      <point x="108" y="422"/>
      <point x="108" y="250" type="curve" smooth="yes"/>
      <point x="108" y="78"/>
      <point x="156" y="0"/>
      <point x="331" y="0" type="curve"/>
      <point x="331" y="34" type="line"/>
      <point x="187" y="34"/>
      <point x="143" y="84"/>
      <point x="143" y="250" type="curve" smooth="yes"/>
      <point x="143" y="416"/>
      <point x="187" y="466"/>
      <point x="331" y="466" type="curve" smooth="yes"/>
      <point x="491" y="466" type="line"/>
      <point x="476" y="480" type="line"/>
      <point x="476" y="0" type="line"/>
      <point x="511" y="34" type="line"/>
      <point x="0" y="34" type="line"/>
    </contour>
    <component base="connection_l"/>
  </outline>
</glyph>
<glyph name="fehDotless-ar.medi" format="2">
  <advance width="611"/>
  <outline>
    <contour>
      <point x="511" y="0" type="line"/>
      <point x="611" y="0" type="line"/>
      <point x="611" y="34" type="line"/>
      <point x="511" y="34" type="line"/>
    </contour>
    <component base="fehDotless-ar.init"/>
    <component base="connection_r" xOffset="561"/>
  </outline>
</glyph>
<glyph name="four.pnum" format="2">
  <advance width="465"/>
  <outline>
    <contour>
      <point x="331" y="-33" type="line"/>
      <point x="366" y="-33" type="line"/>
      <point x="366" y="101" type="line"/>
      <point x="427" y="101" type="line"/>
      <point x="427" y="133" type="line"/>
      <point x="366" y="133" type="line"/>
      <point x="366" y="280" type="line"/>
      <point x="331" y="280" type="line"/>
      <point x="331" y="133" type="line"/>
      <point x="79" y="133" type="line"/>
      <point x="252" y="500" type="line"/>
      <point x="216" y="500" type="line"/>
      <point x="40" y="132" type="line"/>
      <point x="40" y="101" type="line"/>
      <point x="331" y="101" type="line"/>
    </contour>
  </outline>
</glyph>
<glyph name="hah-ar.fina.alt" format="2">
  <advance width="609"/>
  <outline>
    <contour>
      <point x="509" y="0" type="line"/>
      <point x="609" y="0" type="line"/>
      <point x="609" y="34" type="line"/>
      <point x="509" y="34" type="line"/>
    </contour>
    <component base="connection_r" xOffset="559"/>
    <component base="hah-ar.alt"/>
  </outline>
</glyph>
<glyph name="kafDotless-ar" format="2">
  <advance width="751"/>
  <anchor x="356" y="-100" name="bottom"/>
  <anchor x="356" y="300" name="top"/>
  <outline>
    <contour>
      <point x="337" y="0" type="curve" smooth="yes"/>
      <point x="671" y="0" type="line"/>
      <point x="671" y="730" type="line"/>
      <point x="636" y="730" type="line"/>
      <point x="636" y="20" type="line"/>
      <point x="651" y="34" type="line"/>
      <point x="337" y="34" type="line" smooth="yes"/>
      <point x="154" y="34"/>
      <point x="75" y="90"/>
      <point x="75" y="213" type="curve" smooth="yes"/>
      <point x="75" y="271"/>
      <point x="92" y="345"/>
      <point x="100" y="386" type="curve"/>
      <point x="66" y="392" type="line"/>
      <point x="64" y="379"/>
      <point x="40" y="275"/>
      <point x="40" y="213" type="curve" smooth="yes"/>
      <point x="40" y="67"/>
      <point x="138" y="0"/>
    </contour>
  </outline>
</glyph>
<glyph name="macron.cap" format="2">
  <advance width="215"/>
  <outline>
    <contour>
      <point x="-20" y="832" type="line"/>
      <point x="267" y="832" type="line"/>
      <point x="267" y="864" type="line"/>
      <point x="-20" y="864" type="line"/>
    </contour>
  </outline>
</glyph>
<glyph name="nine.pnum" format="2">
  <advance width="486"/>
  <outline>
    <contour>
      <point x="223" y="-9" type="curve" smooth="yes"/>
      <point x="347" y="-9"/>
      <point x="425" y="58"/>
      <point x="425" y="251" type="curve" smooth="yes"/>
      <point x="425" y="424"/>
      <point x="363" y="510"/>
      <point x="235" y="510" type="curve" smooth="yes"/>
      <point x="122" y="510"/>
      <point x="54" y="448"/>
      <point x="54" y="344" type="curve" smooth="yes"/>
      <point x="54" y="246"/>
      <point x="115" y="190"/>
      <point x="228" y="190" type="curve" smooth="yes"/>
      <point x="295" y="190"/>
      <point x="388" y="233"/>
      <point x="388" y="234" type="curve"/>
      <point x="388" y="72"/>
      <point x="323" y="23"/>
      <point x="223" y="23" type="curve" smooth="yes"/>
      <point x="176" y="23"/>
      <point x="112" y="32"/>
      <point x="76" y="38" type="curve"/>
      <point x="74" y="6" type="line"/>
      <point x="111" y="0"/>
      <point x="176" y="-9"/>
    </contour>
    <contour>
      <point x="229" y="222" type="curve" smooth="yes"/>
      <point x="133" y="222"/>
      <point x="89" y="265"/>
      <point x="89" y="344" type="curve" smooth="yes"/>
      <point x="89" y="435"/>
      <point x="139" y="478"/>
      <point x="235" y="478" type="curve" smooth="yes"/>
      <point x="342" y="478"/>
      <point x="386" y="408"/>
      <point x="389" y="266" type="curve"/>
      <point x="350" y="247"/>
      <point x="280" y="222"/>
    </contour>
  </outline>
</glyph>
<glyph name="paragraph.rvrn" format="2">
  <advance width="589"/>
  <outline>
    <contour>
      <point x="233" y="0" type="line"/>
      <point x="269" y="0" type="line"/>
      <point x="269" y="667" type="line"/>
      <point x="421" y="667" type="line"/>
      <point x="421" y="0" type="line"/>
      <point x="457" y="0" type="line"/>
      <point x="457" y="667" type="line"/>
      <point x="554" y="667" type="line"/>
      <point x="554" y="700" type="line"/>
      <point x="226" y="700" type="line" smooth="yes"/>
      <point x="123" y="700"/>
      <point x="40" y="629"/>
      <point x="40" y="524" type="curve" smooth="yes"/>
      <point x="40" y="419"/>
      <point x="123" y="350"/>
      <point x="226" y="350" type="curve" smooth="yes"/>
      <point x="233" y="350" type="line"/>
    </contour>
  </outline>
</glyph>
<glyph name="questiondown.cap" format="2">
  <advance width="447"/>
  <outline>
    <contour>
      <point x="276" y="511" type="curve"/>
      <point x="242" y="511" type="line"/>
      <point x="242" y="473" type="line" smooth="yes"/>
      <point x="242" y="417"/>
      <point x="195" y="377"/>
      <point x="144" y="332" type="curve" smooth="yes"/>
      <point x="60" y="258"/>
      <point x="43" y="232"/>
      <point x="43" y="150" type="curve" smooth="yes"/>
      <point x="43" y="33"/>
      <point x="116" y="-8"/>
      <point x="243" y="-8" type="curve" smooth="yes"/>
      <point x="282" y="-8"/>
      <point x="361" y="7"/>
      <point x="409" y="19" type="curve"/>
      <point x="404" y="53" type="line"/>
      <point x="355" y="41"/>
      <point x="278" y="25"/>
      <point x="243" y="25" type="curve" smooth="yes"/>
      <point x="137" y="25"/>
      <point x="78" y="54"/>
      <point x="78" y="150" type="curve" smooth="yes"/>
      <point x="78" y="219"/>
      <point x="99" y="246"/>
      <point x="170" y="310" type="curve" smooth="yes"/>
      <point x="222" y="357"/>
      <point x="277" y="405"/>
      <point x="277" y="470" type="curve" smooth="yes"/>
      <point x="277" y="484"/>
      <point x="276" y="497"/>
    </contour>
    <contour>
      <point x="279" y="700" type="line"/>
      <point x="239" y="700" type="line"/>
      <point x="239" y="620" type="line"/>
      <point x="279" y="620" type="line"/>
    </contour>
  </outline>
</glyph>
<glyph name="ring.cap" format="2">
  <advance width="215"/>
  <outline>
    <contour>
      <point x="120" y="730" type="curve" smooth="yes"/>
      <point x="178" y="730"/>
      <point x="217" y="764"/>
      <point x="217" y="822" type="curve" smooth="yes"/>
      <point x="217" y="880"/>
      <point x="178" y="914"/>
      <point x="120" y="914" type="curve" smooth="yes"/>
      <point x="62" y="914"/>
      <point x="23" y="880"/>
      <point x="23" y="822" type="curve" smooth="yes"/>
      <point x="23" y="764"/>
      <point x="62" y="730"/>
    </contour>
    <contour>
      <point x="120" y="760" type="curve" smooth="yes"/>
      <point x="80" y="760"/>
      <point x="56" y="782"/>
      <point x="56" y="822" type="curve" smooth="yes"/>
      <point x="56" y="862"/>
      <point x="80" y="884"/>
      <point x="120" y="884" type="curve" smooth="yes"/>
      <point x="160" y="884"/>
      <point x="184" y="862"/>
      <point x="184" y="822" type="curve" smooth="yes"/>
      <point x="184" y="782"/>
      <point x="160" y="760"/>
    </contour>
  </outline>
</glyph>
<glyph name="seven-persian.urdu" format="2">
  <advance width="410"/>
  <outline>
    <contour>
      <point x="30" y="0" type="line"/>
      <point x="380" y="0" type="line"/>
      <point x="380" y="34" type="line"/>
      <point x="61" y="34" type="line"/>
      <point x="73" y="21" type="line"/>
      <point x="267" y="650" type="line"/>
      <point x="234" y="660" type="line"/>
    </contour>
  </outline>
</glyph>
<glyph name="seven.pnum" format="2">
  <advance width="404"/>
  <outline>
    <contour>
      <point x="143" y="-9" type="line"/>
      <point x="368" y="448" type="line"/>
      <point x="368" y="501" type="line"/>
      <point x="41" y="501" type="line"/>
      <point x="41" y="469" type="line"/>
      <point x="333" y="469" type="line"/>
      <point x="333" y="451" type="line"/>
      <point x="111" y="1" type="line"/>
    </contour>
  </outline>
</glyph>
<glyph name="six.pnum" format="2">
  <advance width="481"/>
  <outline>
    <contour>
      <point x="243" y="-10" type="curve" smooth="yes"/>
      <point x="366" y="-10"/>
      <point x="428" y="49"/>
      <point x="428" y="157" type="curve" smooth="yes"/>
      <point x="428" y="259"/>
      <point x="372" y="313"/>
      <point x="257" y="313" type="curve" smooth="yes"/>
      <point x="208" y="313"/>
      <point x="140" y="290"/>
      <point x="95" y="269" type="curve"/>
      <point x="95" y="428"/>
      <point x="160" y="477"/>
      <point x="259" y="477" type="curve" smooth="yes"/>
      <point x="306" y="477"/>
      <point x="365" y="469"/>
      <point x="397" y="463" type="curve"/>
      <point x="400" y="494" type="line"/>
      <point x="367" y="500"/>
      <point x="306" y="509"/>
      <point x="259" y="509" type="curve" smooth="yes"/>
      <point x="137" y="509"/>
      <point x="61" y="444"/>
      <point x="61" y="254" type="curve" smooth="yes"/>
      <point x="61" y="73"/>
      <point x="126" y="-10"/>
    </contour>
    <contour>
      <point x="243" y="21" type="curve" smooth="yes"/>
      <point x="143" y="21"/>
      <point x="97" y="94"/>
      <point x="95" y="237" type="curve"/>
      <point x="134" y="256"/>
      <point x="204" y="281"/>
      <point x="255" y="281" type="curve" smooth="yes"/>
      <point x="356" y="281"/>
      <point x="393" y="242"/>
      <point x="393" y="157" type="curve" smooth="yes"/>
      <point x="393" y="65"/>
      <point x="345" y="21"/>
    </contour>
  </outline>
</glyph>
<glyph name="three.pnum" format="2">
  <advance width="484"/>
  <outline>
    <contour>
      <point x="226" y="-8" type="curve" smooth="yes"/>
      <point x="365" y="-8"/>
      <point x="424" y="35"/>
      <point x="424" y="134" type="curve" smooth="yes"/>
      <point x="424" y="229"/>
      <point x="369" y="251"/>
      <point x="312" y="267" type="curve"/>
      <point x="314" y="267"/>
      <point x="409" y="286"/>
      <point x="409" y="390" type="curve" smooth="yes"/>
      <point x="409" y="471"/>
      <point x="352" y="510"/>
      <point x="236" y="510" type="curve" smooth="yes"/>
      <point x="167" y="510"/>
      <point x="91" y="498"/>
      <point x="53" y="489" type="curve"/>
      <point x="58" y="457" type="line"/>
      <point x="95" y="466"/>
      <point x="173" y="478"/>
      <point x="241" y="478" type="curve" smooth="yes"/>
      <point x="328" y="478"/>
      <point x="374" y="455"/>
      <point x="374" y="388" type="curve" smooth="yes"/>
      <point x="374" y="310"/>
      <point x="313" y="286"/>
      <point x="250" y="282" type="curve"/>
      <point x="129" y="282" type="line"/>
      <point x="129" y="250" type="line"/>
      <point x="251" y="250" type="line"/>
      <point x="317" y="246"/>
      <point x="389" y="226"/>
      <point x="389" y="135" type="curve" smooth="yes"/>
      <point x="389" y="57"/>
      <point x="335" y="24"/>
      <point x="245" y="23" type="curve" smooth="yes"/>
      <point x="186" y="23"/>
      <point x="107" y="33"/>
      <point x="64" y="41" type="curve"/>
      <point x="59" y="9" type="line"/>
      <point x="131" y="-3"/>
      <point x="179" y="-8"/>
    </contour>
  </outline>
</glyph>
<glyph name="threedotsdowncenter-ar.alt" format="2">
  <advance width="166"/>
  <anchor x="83" y="257" name="_center"/>
  <outline>
    <contour>
      <point x="66" y="237" type="line"/>
      <point x="66" y="182" type="line"/>
      <point x="101" y="182" type="line"/>
      <point x="101" y="237" type="line"/>
    </contour>
    <contour>
      <point x="20" y="332" type="line"/>
      <point x="20" y="277" type="line"/>
      <point x="55" y="277" type="line"/>
      <point x="55" y="332" type="line"/>
    </contour>
    <contour>
      <point x="111" y="332" type="line"/>
      <point x="111" y="277" type="line"/>
      <point x="146" y="277" type="line"/>
      <point x="146" y="332" type="line"/>
    </contour>
  </outline>
</glyph>
<glyph name="wasla-ar" format="2">
  <advance width="217"/>
  <anchor x="109" y="515" name="_top"/>
  <anchor x="109" y="722" name="top"/>
  <outline>
    <contour>
      <point x="47" y="549" type="curve"/>
      <point x="82" y="549" type="line"/>
      <point x="82" y="571"/>
      <point x="99" y="588"/>
      <point x="122" y="588" type="curve" smooth="yes"/>
      <point x="145" y="588"/>
      <point x="162" y="571"/>
      <point x="162" y="549" type="curve"/>
      <point x="197" y="549" type="line"/>
      <point x="197" y="593"/>
      <point x="161" y="622"/>
      <point x="122" y="622" type="curve" smooth="yes"/>
      <point x="83" y="622"/>
      <point x="47" y="593"/>
    </contour>
    <contour>
      <point x="20" y="515" type="line"/>
      <point x="197" y="515" type="line"/>
      <point x="197" y="549" type="line"/>
      <point x="20" y="549" type="line"/>
    </contour>
  </outline>
</glyph>
